<?xml version="1.0" encoding="UTF-8" standalone="no"?><!DOCTYPE svg PUBLIC "-//W3C//DTD SVG 1.1//EN" "http://www.w3.org/Graphics/SVG/1.1/DTD/svg11.dtd"><svg width="256px" height="70px" viewBox="0 0 2857 782" version="1.1" xmlns="http://www.w3.org/2000/svg" xmlns:xlink="http://www.w3.org/1999/xlink" xml:space="preserve" xmlns:serif="http://www.serif.com/" style="fill-rule:evenodd;clip-rule:evenodd;stroke-linejoin:round;stroke-miterlimit:2;"><path d="M2427.67,454.965c-4.167,-3.223 -7.889,-6.056 -11.5,-9c-14.167,-11.389 -27.5,-23.611 -40.333,-36.5c-11.722,-11.723 -23.278,-23.556 -34.945,-35.389c-0.444,-0.445 -0.833,-0.945 -1.277,-1.445c0.222,-2.389 1.111,-4.444 2.5,-6.389c9.666,-13.277 19.611,-26.277 30.222,-38.833c20.444,-24.278 44.333,-44.333 72,-60c21.444,-12.111 44,-21.5 67.889,-27.555c8.944,-2.278 17.944,-3.945 27.055,-5.389c20.667,-3.223 41.389,-3.5 62.167,-2.389c14.944,0.778 29.778,3.055 44.444,6.333c20.5,4.611 40.167,11.611 58.945,21c16.944,8.5 32.833,18.722 47.611,30.611c24.444,19.834 45.778,42.5 62.833,69.111c17.5,27.223 29.389,56.723 35.722,88.445c2.278,11.333 3.778,22.722 4.778,34.278c1.222,14.222 1.334,28.444 0.445,42.611c-1.334,21.222 -5.056,42.111 -11.223,62.5c-4.444,14.833 -10.111,29.222 -17.055,43c-12.222,24.277 -27.667,46.333 -46.5,66.055c-24.833,26 -53.667,46.222 -86.389,61c-19.111,8.611 -39,14.945 -59.611,19c-12.556,2.445 -25.222,4.334 -38.056,4.778c-6.389,0.222 -12.777,0.611 -19.222,0.556c-10.611,-0.056 -21.167,-1.056 -31.722,-2.389c-13.167,-1.667 -26.167,-4.334 -39,-7.778c-15.111,-4.056 -29.778,-9.222 -44.111,-15.445c-34.222,-14.833 -66.167,-33.777 -96.889,-54.833c-31.222,-21.444 -60.945,-44.778 -89.389,-69.778c-13.833,-12.166 -27.5,-24.611 -40.778,-37.389c-18.555,-17.888 -36.722,-36.222 -55.055,-54.388c-5,-4.945 -10,-9.834 -15.167,-14.889c-0.944,0.333 -1.778,0.666 -2.722,1c-0.5,3.389 0.333,6.611 0.889,9.777c1.722,9.889 4.944,19.334 9.389,28.334c4.277,8.666 8.944,17.166 13.5,25.722c2.666,4.944 5.388,9.833 8.166,15c-1.944,4.778 -3.722,9.611 -5.778,14.333c-10.333,23.445 -24,44.834 -40.333,64.556c-18.333,22.055 -39.611,40.778 -63.778,56.167c-25.111,16 -52.166,27.444 -81.055,34.444c-12.278,3 -24.722,5.222 -37.389,6.056c-7.5,0.5 -14.945,1.222 -22.445,1.388c-9.388,0.167 -18.722,-0.277 -28.055,-1.333c-5.722,-0.667 -11.5,-1.222 -17.222,-1.944c-14.445,-1.834 -28.556,-5.056 -42.5,-9.056c-16.723,-4.833 -32.778,-11.167 -48.223,-19.167c-18.555,-9.611 -35.611,-21.388 -51.166,-35.277c-22.056,-19.611 -40.056,-42.445 -55.056,-67.723c-8.222,-13.833 -15.5,-28.166 -21.611,-43.055c-5.167,-12.611 -8.722,-25.667 -11.278,-39.056c-2.333,-11.944 -4.111,-24 -4.833,-36.166c-0.5,-8.278 -1.389,-16.5 -1.333,-24.778c0.111,-11.056 0.777,-22.111 2.111,-33.167c3.055,-24.333 9.389,-47.666 18.722,-70.278c9.611,-23.222 22.333,-44.666 37.833,-64.444c18.778,-23.944 40.945,-44.222 66.5,-60.778c26.611,-17.222 55.334,-29.444 86.223,-36.5c14.166,-3.222 28.444,-5.5 42.944,-6.778c14.833,-1.333 29.722,-1.5 44.5,-0.5c27.944,1.945 54.833,8.389 80.667,19.278c27.611,11.667 52.444,27.611 75.055,47.167c20.111,17.389 39.167,35.944 57.722,54.944c16.723,17.111 33.112,34.556 49.778,51.667c15.389,15.778 30.667,31.667 46.445,47.111c29.722,29.111 60.611,56.945 92.833,83.222c19.389,15.834 39.111,31.167 59.5,45.667c23.833,17.056 49.278,31.278 75.944,43.389c11.778,5.333 23.667,10.555 35.945,14.722c9.167,3.111 18.611,5.167 28.222,6.333c9.833,1.223 19.667,1.278 29.5,0.5c15.333,-1.222 30.111,-5.055 44.278,-11.111c20.555,-8.833 38.278,-21.666 52.889,-38.666c16.778,-19.5 28.722,-41.611 33.778,-67c2.555,-12.945 3,-26 1.555,-39.167c-2.222,-20.778 -8.611,-40.222 -18.167,-58.667c-11.611,-22.389 -27.944,-40.555 -49.666,-53.666c-12.778,-7.723 -26.556,-13.167 -41.056,-16.611c-8.055,-1.889 -16.166,-3.223 -24.444,-4.056c-7.667,-0.778 -15.334,-0.944 -22.945,-0.444c-16.333,1.111 -32.055,4.944 -47,11.666c-24.166,10.945 -44.722,26.778 -62,46.778c-8.889,10.278 -17.5,20.778 -26.166,31.278c-2.223,2.889 -4.389,5.889 -7.056,9.389Zm-342.278,50.944c0.334,-78.722 -64.166,-146.389 -146.277,-146.555c-79.112,-0.167 -147.334,62.222 -147.167,146.944c0.167,82.667 66.778,146.722 147.278,146.444c82.833,-0.277 146.944,-69.5 146.166,-146.833Z" style="fill:#005ae0;fill-rule:nonzero;"/><path d="M1620.28,568.298c-65.389,0.333 -130.722,0.111 -196.055,0.167l-196,-0c-1.167,1.444 -0.723,2.833 -0.389,4.111c1.055,4.111 2.555,8.055 4.889,11.611c2.833,4.278 5.611,8.667 8.944,12.611c14.278,16.944 31.111,30.722 51.5,39.778c12.722,5.666 26,9.666 39.778,12c11.167,1.889 22.389,2.278 33.611,1.389c14.389,-1.167 28.222,-4.889 41.5,-10.778c16.278,-7.222 30.944,-16.945 44.389,-28.5c3.055,-2.667 6.055,-5.389 9.055,-8c0.223,-0.056 0.389,-0.111 0.556,-0.167c0.167,0 0.333,-0.055 0.444,0c41.889,13.945 83.778,27.834 125.667,41.778c0.445,0.167 0.833,0.444 1.5,0.778c-1.278,2.666 -2.778,5.166 -4.278,7.666c-16.944,28.223 -38.777,52.056 -64.833,72.056c-14.778,11.389 -30.556,21.167 -47.278,29.389c-22.389,11 -45.889,18.778 -70.444,23.278c-7.834,1.444 -15.722,2.5 -23.611,3.222c-14.834,1.389 -29.667,1.333 -44.5,0.5c-10.111,-0.556 -20.167,-2 -30.167,-3.889c-12,-2.222 -23.778,-5.222 -35.333,-8.944c-18.056,-5.778 -35.389,-13.223 -51.945,-22.389c-16.055,-8.889 -31.055,-19.278 -44.944,-31.223c-20.667,-17.722 -38.278,-38.111 -52.778,-61.166c-16,-25.445 -27.278,-52.889 -34.333,-82.111c-2.334,-9.723 -3.945,-19.556 -5.223,-29.445c-2.388,-18.055 -2.444,-36.166 -1.444,-54.278c0.556,-10.555 2.167,-21.111 4.111,-31.555c3.833,-20.611 9.945,-40.556 18.278,-59.833c9.889,-22.945 22.555,-44.167 38.222,-63.667c13.5,-16.778 28.722,-31.722 45.722,-44.889c21.389,-16.556 44.778,-29.556 70.111,-39.167c14.889,-5.666 30.223,-9.944 45.889,-12.889c7.945,-1.5 16,-2.833 24.111,-3.277c8.556,-0.445 17.167,-1.334 25.723,-1.334c11.889,-0.055 23.722,0.778 35.5,2.278c19.611,2.445 38.666,6.945 57.333,13.333c31.5,10.778 60.333,26.445 86.056,47.612c24,19.722 43.944,43 59.888,69.722c15.667,26.222 26.445,54.389 32.889,84.222c1.945,9 3.278,18.111 4.278,27.222c1.278,11.5 1.833,23.056 1.611,34.611c-0.278,12.5 -1.166,24.945 -3.444,37.278c-1,5.5 -2.056,11.056 -3.111,16.556c-0.5,1.389 -0.945,2.666 -1.445,4.333Zm-393.389,-122.778c5.334,0.667 10.278,1 15.223,1c59.833,-0.055 119.722,0 179.555,0l43.111,0c5.334,0 10.5,-0.833 15.834,-1.944c-0.223,-0.778 -0.389,-1.389 -0.612,-1.945c-4.944,-12.333 -12,-23.277 -20.888,-33.055c-11.667,-12.889 -25.5,-22.945 -41.056,-30.667c-17.5,-8.722 -36.111,-13.833 -55.556,-15.444c-9,-0.723 -18.055,-0.556 -27.111,0.444c-10,1.111 -19.611,3.5 -29,7.111c-19.333,7.389 -36.666,18.056 -52.111,31.722c-7.278,6.445 -13.889,13.5 -19.166,21.723c-4,6.222 -7.334,12.889 -8.223,21.055Z" style="fill:#005ae0;fill-rule:nonzero;"/><path d="M557.171,233.131c4.333,-0.555 124.333,-0.666 129.722,-0.111c0.056,1.445 0.223,2.945 0.223,4.445c0.055,25.611 0.055,51.277 0.055,76.889c0,12.666 0.056,25.333 0.111,38c0.111,36.555 0.334,73.166 0.278,109.722c-0,23.111 -0.444,46.278 -0.667,69.389c-0.055,2.833 -0.055,5.611 0,8.444c0.778,26.333 9.389,49.833 26.223,70.111c13.666,16.5 30.666,28.334 50.888,35.445c9,3.166 18.334,5.111 27.889,5.722c2.778,0.167 5.611,0.555 8.389,0.611c23.389,0.111 44.667,-6.444 63.667,-20.056c13.889,-9.888 25.889,-21.666 34.833,-36.277c7.167,-11.723 11.889,-24.389 13.5,-38.056c0.5,-4.167 0.722,-8.389 1,-12.611c1.445,-23.278 0.778,-46.556 0.778,-69.833c0.111,-75.5 0.056,-151 0.111,-226.5c0,-5.111 0.5,-10.223 0.722,-14.945c0.445,-0.5 0.5,-0.666 0.667,-0.722c0.111,-0.056 0.278,-0.111 0.444,-0.111c41.278,-0.056 82.556,-0.056 123.834,-0.111c0.778,-0 1.555,-0 2.333,0.111c0.278,0.055 0.556,0.222 1.111,0.5c0.111,1.667 0.278,3.5 0.334,5.389c0.111,3.278 0.166,6.555 0.166,9.833c0,86.111 0.056,172.278 0.056,258.389c-0,14.389 -0.056,28.778 -0.111,43.167c-0.056,14.722 -2,29.277 -5.167,43.611c-4.056,18.5 -10.389,36.278 -18.833,53.222c-8.667,17.389 -19.334,33.556 -31.945,48.389c-20,23.444 -43.444,42.611 -70.555,57.278c-20.611,11.111 -42.334,19.111 -65.334,23.611c-9.055,1.778 -18.166,3.111 -27.333,3.722c-7.778,0.5 -15.611,1.333 -23.389,1.333c-8.722,0 -17.444,-0.777 -26.222,-1.222c-7.5,-0.389 -14.889,-1.611 -22.278,-2.944c-14.667,-2.611 -28.833,-6.667 -42.722,-12.111c-33.611,-13.167 -62.333,-33.5 -87.333,-59.278c-18.445,-19 -33.334,-40.5 -44.389,-64.611c-7.889,-17.223 -13.556,-35.167 -17.167,-53.834c-2.889,-14.777 -4,-29.666 -3.944,-44.722c0.055,-22.5 0.055,-45 0.055,-67.555c0,-78.5 -0.055,-156.945 -0.055,-235.445c0.055,-2 0.055,-4 0.055,-6.278Z" style="fill:#005ae0;fill-rule:nonzero;"/><path d="M405.393,439.465c-2.777,-4.389 -5.166,-8.389 -7.722,-12.278c-10.611,-16.222 -23.389,-30.5 -39.055,-42c-16.889,-12.389 -35.723,-20.333 -56.334,-24.111c-12.833,-2.389 -25.778,-3.167 -38.722,-2.445c-15.056,0.834 -29.722,3.778 -43.667,9.611c-30.722,12.834 -54.5,33.778 -71.444,62.334c-8.611,14.5 -14,30.222 -17.056,46.778c-1.611,8.944 -2.555,17.944 -2.333,27c0.833,36.333 12.556,68.5 37.056,95.666c21.111,23.445 47.333,38.445 78.111,45.445c7.444,1.666 15.055,2.611 22.722,3.055c24.722,1.5 48.111,-3.444 70.333,-14.166c13.889,-6.723 26.334,-15.556 37.556,-26.167c10.611,-10.056 19.722,-21.278 27.5,-33.667c0.555,-0.944 1.222,-1.833 1.833,-2.722c0.056,-0.111 0.278,-0.167 0.722,-0.444c19.056,9.444 38.278,19.111 57.5,28.722c19.111,9.555 38.278,19.111 57.667,28.778c-0.333,1 -0.556,1.833 -0.889,2.611c-6,13.277 -13.611,25.666 -22.222,37.333c-21.722,29.444 -48.611,53.222 -79.833,72.111c-20.278,12.278 -41.778,21.778 -64.5,28.556c-12.556,3.722 -25.389,6.444 -38.334,8.444c-18.333,2.833 -36.722,3.333 -55.166,2.278c-20.167,-1.111 -39.945,-4.722 -59.389,-10.222c-16.389,-4.667 -32.278,-10.778 -47.5,-18.389c-20.111,-10 -38.723,-22.278 -55.778,-36.834c-20.945,-17.888 -38.833,-38.5 -53.611,-61.722c-16.889,-26.611 -28.834,-55.278 -35.945,-85.944c-2.222,-9.722 -3.777,-19.556 -5,-29.5c-2.055,-16.334 -2.333,-32.722 -1.333,-49.111c1.833,-29.445 7.944,-58.056 18.889,-85.5c11.278,-28.389 26.833,-54.278 46.778,-77.445c19.444,-22.555 41.944,-41.555 67.555,-56.722c24.611,-14.611 50.889,-25.167 78.834,-31.444c11.888,-2.667 23.833,-4.723 36,-5.834c10.277,-0.944 20.555,-1.722 30.888,-1.444c14.667,0.389 29.278,1.611 43.778,4.166c17.111,3.056 33.778,7.556 50,13.778c27.5,10.5 52.722,25.056 75.556,43.667c22.611,18.389 41.833,39.889 57.333,64.555c5.222,8.334 9.945,16.945 14.056,25.834c-0.889,1.666 -2.556,1.944 -3.889,2.611c-23.389,11.555 -46.778,23.111 -70.111,34.667c-12.334,6.111 -24.611,12.166 -36.945,18.277c-1.333,0.667 -2.444,1.167 -3.889,1.834Z" style="fill:#005ae0;fill-rule:nonzero;"/><path d="M2083.73,0.298c7.222,-0.5 127.055,-0.333 131,0.222c0.277,2.222 0.666,4.5 0.777,6.778c0.889,15.444 0.945,30.889 1.278,46.389c0.667,32.5 0.667,65 0.389,97.5c-0.167,19.222 -0.5,38.444 -0.889,57.667c-0.166,8.444 -0.5,16.888 -0.889,25.277c-0.222,4.834 -0.722,9.611 -1.055,14.278c-1.111,0.778 -1.611,0.111 -2.167,-0.389c-4.278,-4.111 -8.555,-8.222 -12.889,-12.333c-19.389,-18.222 -39.889,-35.056 -62.389,-49.389c-16.5,-10.556 -33.833,-19.389 -52.055,-26.556c-0.278,-0.111 -0.556,-0.277 -1.111,-0.5c-0.111,-0.888 -0.278,-1.944 -0.278,-3l-0,-152.388c-0,-1.278 0.222,-2.445 0.278,-3.556Z" style="fill:#005ae0;fill-rule:nonzero;"/></svg>
