<?xml version="1.0" encoding="UTF-8"?>
<svg xmlns="http://www.w3.org/2000/svg" xmlns:xlink="http://www.w3.org/1999/xlink" width="256px" height="63px" viewBox="0 0 256 63" version="1.1">
<defs>
<linearGradient id="linear0" gradientUnits="userSpaceOnUse" x1="45.25" y1="90.2516" x2="116.2667" y2="90.2516" gradientTransform="matrix(0.697548,0,0,0.7,-31.529155,-31.78)">
<stop offset="0.00000008" style="stop-color:rgb(74.901961%,28.627451%,12.156863%);stop-opacity:1;"/>
<stop offset="0.286" style="stop-color:rgb(80%,34.509804%,18.431373%);stop-opacity:1;"/>
<stop offset="0.8836" style="stop-color:rgb(92.54902%,49.803922%,37.647059%);stop-opacity:1;"/>
<stop offset="1" style="stop-color:rgb(96.078431%,53.72549%,41.960784%);stop-opacity:1;"/>
</linearGradient>
</defs>
<g id="surface1">
<path style=" stroke:none;fill-rule:nonzero;fill:url(#linear0);" d="M 28.179688 51.589844 C 35.714844 51.730469 47.574219 52.011719 47.574219 52.011719 C 50.363281 52.078125 50.222656 48.019531 47.574219 48.089844 C 47.574219 48.089844 34.808594 48.511719 28.109375 48.71875 C 21.414062 48.929688 10.042969 47.53125 4.464844 35.488281 C 4.605469 35.070312 4.742188 34.71875 4.953125 34.300781 C 8.089844 40.179688 13.113281 45.851562 26.578125 46.199219 C 33.0625 46.410156 46.109375 46.480469 46.109375 46.480469 C 48.6875 46.339844 48.550781 42.628906 46.039062 42.628906 C 46.039062 42.628906 30.484375 43.398438 26.785156 43.539062 C 15.902344 43.890625 10.113281 40.738281 5.511719 33.179688 C 5.71875 32.761719 5.929688 32.410156 6.207031 31.988281 C 10.324219 38.710938 16.742188 40.878906 24.902344 41.019531 L 36.691406 41.160156 C 39.410156 41.300781 39.410156 37.238281 36.691406 37.238281 L 24.761719 38.011719 C 19.320312 38.359375 11.648438 37.800781 6.976562 30.871094 C 10.394531 25.691406 14.371094 23.871094 20.71875 23.308594 C 22.878906 23.101562 24.972656 23.101562 27.132812 23.238281 L 36.761719 23.730469 C 37.386719 23.730469 37.808594 23.238281 37.808594 22.679688 C 37.808594 22.121094 37.320312 21.628906 36.761719 21.628906 L 26.226562 21.558594 C 19.390625 21.839844 11.71875 21.699219 6.558594 30.378906 C 6.207031 29.820312 5.859375 29.261719 5.582031 28.699219 C 10.324219 19.878906 19.113281 17.570312 25.878906 17.78125 L 46.039062 18.550781 C 46.664062 18.550781 47.085938 18.058594 47.085938 17.5 C 47.085938 16.871094 46.597656 16.378906 46.039062 16.378906 L 25.878906 16.238281 C 19.949219 16.238281 10.324219 17.710938 5.023438 27.929688 C 4.742188 27.371094 4.535156 26.601562 4.324219 26.039062 C 9.625 14.628906 20.019531 12.601562 28.25 12.671875 C 34.738281 12.671875 47.574219 12.949219 47.574219 12.949219 C 48.199219 12.949219 48.6875 12.460938 48.6875 11.898438 C 48.6875 11.339844 48.199219 10.851562 47.574219 10.851562 C 47.574219 10.851562 32.785156 10.851562 28.949219 10.921875 C 20.089844 11.128906 9.625 12.738281 4.117188 25.058594 C 3.90625 24.359375 3.835938 24.011719 3.695312 23.308594 C 7.671875 11.898438 19.390625 7.351562 28.949219 7.351562 C 36.550781 7.421875 46.039062 7.488281 46.039062 7.488281 C 46.664062 7.488281 47.085938 7 47.085938 6.441406 C 47.085938 5.808594 46.597656 5.390625 46.039062 5.390625 C 46.039062 5.390625 37.738281 5.390625 29.925781 5.320312 C 19.949219 5.320312 8.859375 9.171875 3.488281 21.558594 C 3.417969 20.578125 3.488281 19.808594 3.558594 19.179688 C 7.953125 10.011719 16.390625 2.101562 30.203125 2.101562 C 32.574219 2.101562 36.691406 2.101562 36.691406 2.101562 C 37.320312 2.101562 37.738281 1.609375 37.738281 1.050781 C 37.738281 0.421875 37.25 0 36.691406 0 C 36.691406 0 30.621094 0.140625 28.179688 0.210938 C 12.972656 0.628906 0 14.839844 0 31.078125 C 0 47.320312 11.859375 61.738281 27.691406 62.71875 C 31.390625 62.929688 36.691406 63 36.691406 63 C 39.410156 63.140625 39.410156 59.011719 36.691406 59.078125 C 35.296875 59.078125 30.902344 59.289062 28.390625 59.289062 C 15.136719 59.148438 6.976562 52.148438 3.417969 42.28125 C 3.417969 41.859375 3.347656 41.371094 3.417969 40.949219 C 7.882812 51.800781 16.878906 56.839844 28.109375 57.121094 C 31.320312 57.191406 46.109375 57.609375 46.175781 57.609375 C 48.757812 57.46875 48.617188 53.761719 46.039062 53.691406 L 28.109375 54.109375 C 17.019531 54.179688 7.8125 49.210938 3.628906 38.429688 C 3.695312 38.011719 3.765625 37.589844 3.90625 37.171875 C 8.929688 48.371094 19.601562 51.449219 28.179688 51.589844 Z M 4.605469 29.609375 C 4.882812 30.171875 5.160156 30.660156 5.441406 31.21875 C 5.230469 31.570312 5.023438 31.921875 4.8125 32.339844 C 4.535156 31.78125 4.253906 31.289062 4.046875 30.730469 C 4.183594 30.378906 4.394531 29.960938 4.605469 29.609375 Z M 3.695312 27.230469 C 3.90625 27.789062 4.324219 28.910156 4.324219 28.980469 C 4.117188 29.328125 3.976562 29.679688 3.835938 30.03125 C 3.628906 29.46875 3.417969 28.910156 3.277344 28.28125 C 3.347656 28 3.488281 27.578125 3.695312 27.230469 Z M 3.347656 31.21875 C 3.207031 31.570312 3.140625 31.921875 3 32.339844 C 2.789062 31.78125 2.652344 31.21875 2.511719 30.589844 C 2.582031 30.238281 2.71875 29.890625 2.789062 29.539062 C 3 30.101562 3.140625 30.660156 3.347656 31.21875 Z M 3 24.289062 C 3.070312 24.988281 3.207031 25.691406 3.417969 26.320312 C 3.277344 26.671875 3.140625 27.019531 3 27.371094 C 2.859375 26.671875 2.71875 25.898438 2.652344 25.199219 C 2.71875 24.921875 2.859375 24.640625 3 24.289062 Z M 2.230469 26.460938 C 2.300781 27.160156 2.441406 27.859375 2.582031 28.558594 C 2.582031 28.558594 2.371094 29.191406 2.300781 29.539062 C 2.164062 28.769531 2.023438 28.070312 2.023438 27.300781 C 2.09375 27.019531 2.164062 26.738281 2.230469 26.460938 Z M 1.742188 32.480469 C 1.605469 31.710938 1.464844 31.011719 1.394531 30.238281 C 1.464844 29.890625 1.464844 29.609375 1.535156 29.261719 C 1.605469 29.960938 1.882812 31.359375 1.882812 31.359375 C 1.8125 31.78125 1.742188 32.128906 1.742188 32.480469 Z M 2.371094 35.210938 C 2.230469 34.71875 1.953125 33.601562 1.953125 33.601562 C 2.023438 33.179688 2.023438 32.828125 2.09375 32.410156 C 2.230469 32.96875 2.371094 33.460938 2.582031 34.019531 C 2.582031 34.019531 2.441406 34.789062 2.371094 35.210938 Z M 3.140625 37.378906 C 2.929688 36.890625 2.789062 36.398438 2.582031 35.980469 C 2.652344 35.558594 2.71875 35.140625 2.789062 34.71875 C 2.929688 35.210938 3.140625 35.699219 3.347656 36.191406 C 3.277344 36.539062 3.207031 36.960938 3.140625 37.378906 Z M 3.207031 33.039062 C 3.207031 33.039062 3.417969 32.269531 3.558594 31.921875 C 3.765625 32.480469 3.976562 32.96875 4.253906 33.460938 C 4.117188 33.808594 3.976562 34.230469 3.835938 34.578125 C 3.628906 34.089844 3.417969 33.53125 3.207031 33.039062 Z M 3.207031 33.039062 "/>
<path style=" stroke:none;fill-rule:nonzero;fill:rgb(7.058824%,17.647059%,17.647059%);fill-opacity:1;" d="M 88.378906 55.648438 C 86.496094 57.46875 84.613281 58.800781 80.984375 58.800781 C 75.753906 58.800781 71.777344 55.019531 71.777344 47.738281 C 71.777344 39.691406 75.613281 36.050781 80.566406 36.050781 C 84.753906 36.050781 85.796875 37.660156 86.425781 38.851562 C 86.914062 39.621094 87.195312 40.808594 87.472656 42.070312 C 87.820312 42.421875 88.726562 42.421875 89.078125 41.929688 C 89.078125 40.949219 88.9375 37.378906 88.449219 36.191406 C 86.496094 35.28125 84.402344 34.511719 80.636719 34.511719 C 72.335938 34.511719 67.664062 40.320312 67.664062 48.019531 C 67.664062 55.019531 71.917969 61.039062 80.078125 61.039062 C 84.542969 61.039062 87.683594 59.078125 89.285156 56.488281 C 89.355469 56.070312 88.9375 55.648438 88.378906 55.648438 Z M 88.378906 55.648438 "/>
<path style=" stroke:none;fill-rule:nonzero;fill:rgb(7.058824%,17.647059%,17.647059%);fill-opacity:1;" d="M 105.121094 34.578125 C 97.378906 34.578125 91.9375 40.109375 91.9375 47.949219 C 91.9375 55.160156 96.402344 61.109375 104.773438 61.109375 C 112.652344 61.109375 117.746094 55.371094 117.746094 47.601562 C 117.746094 39.410156 112.722656 34.578125 105.121094 34.578125 Z M 105.050781 59.5 C 99.539062 59.5 95.984375 55.300781 95.984375 47.320312 C 95.984375 40.179688 99.402344 36.050781 104.632812 36.050781 C 109.933594 36.050781 113.5625 39.898438 113.5625 48.089844 C 113.628906 55.441406 110.210938 59.5 105.050781 59.5 Z M 105.050781 59.5 "/>
<path style=" stroke:none;fill-rule:nonzero;fill:rgb(7.058824%,17.647059%,17.647059%);fill-opacity:1;" d="M 141.8125 37.101562 C 142.230469 36.679688 142.789062 36.050781 142.789062 35.769531 C 142.789062 35.488281 142.71875 35.210938 142.578125 35 C 141.882812 35.070312 142.019531 35.140625 140.347656 35.140625 C 138.882812 35.140625 138.253906 35 137.625 35 C 137.488281 35.140625 137.417969 35.421875 137.417969 35.769531 C 137.417969 36.050781 138.113281 36.679688 138.601562 37.101562 C 139.089844 37.589844 139.230469 38.148438 139.230469 39.761719 C 139.300781 42.421875 139.371094 45.851562 139.371094 48.230469 C 139.371094 50.191406 139.371094 52.78125 139.371094 54.25 L 139.300781 54.25 C 135.953125 50.121094 132.535156 45.710938 128.765625 41.019531 C 126.882812 38.710938 125.347656 36.539062 124.511719 35.070312 C 123.746094 35.140625 122.488281 35.140625 121.441406 35.140625 C 120.535156 35.140625 120.046875 35.070312 119.628906 35.070312 C 119.421875 35.210938 119.351562 35.558594 119.351562 35.769531 C 119.351562 36.121094 120.1875 36.820312 120.886719 37.519531 C 121.375 38.078125 121.441406 38.570312 121.441406 40.320312 C 121.441406 42 121.441406 47.878906 121.304688 55.789062 C 121.234375 57.539062 121.09375 58.171875 120.675781 58.660156 C 120.257812 59.078125 119.488281 59.640625 119.488281 59.988281 C 119.488281 60.269531 119.628906 60.480469 119.699219 60.691406 C 120.1875 60.691406 120.398438 60.550781 122.070312 60.550781 C 123.535156 60.550781 124.09375 60.691406 124.582031 60.691406 C 124.722656 60.621094 124.859375 60.339844 124.859375 59.988281 C 124.859375 59.710938 124.234375 59.078125 123.816406 58.660156 C 123.328125 58.171875 123.257812 57.609375 123.257812 56 L 123.117188 40.179688 L 123.257812 40.179688 L 139.859375 61.039062 C 140.066406 61.109375 140.277344 61.179688 140.484375 61.179688 C 140.695312 61.179688 140.972656 61.039062 141.183594 60.898438 C 141.183594 59.148438 141.042969 55.371094 141.042969 47.671875 C 141.042969 44.519531 141.042969 41.441406 141.113281 40.039062 C 141.183594 38.148438 141.324219 37.519531 141.8125 37.101562 Z M 141.8125 37.101562 "/>
<path style=" stroke:none;fill-rule:nonzero;fill:rgb(7.058824%,17.647059%,17.647059%);fill-opacity:1;" d="M 167.410156 35 C 164.203125 35.070312 160.085938 35.140625 156.460938 35.140625 C 152.203125 35.140625 148.019531 35.140625 145.855469 35 C 145.4375 36.328125 145.230469 39.339844 145.230469 39.96875 C 145.648438 40.53125 146.484375 40.320312 146.902344 40.109375 C 147.113281 38.640625 147.460938 38.078125 148.019531 37.449219 C 148.71875 36.75 149.484375 36.609375 151.367188 36.609375 C 153.460938 36.609375 153.949219 36.679688 154.296875 36.960938 C 154.644531 37.171875 154.644531 37.800781 154.644531 38.710938 L 154.644531 56.210938 C 154.644531 57.328125 154.644531 58.171875 154.367188 58.519531 C 154.019531 58.941406 152.832031 59.640625 152.832031 59.921875 C 152.832031 60.199219 152.902344 60.480469 153.113281 60.621094 C 153.667969 60.621094 154.296875 60.480469 156.390625 60.480469 C 157.507812 60.480469 159.597656 60.550781 160.15625 60.621094 C 160.296875 60.480469 160.367188 60.199219 160.367188 59.921875 C 160.367188 59.640625 159.179688 58.871094 158.902344 58.589844 C 158.550781 58.238281 158.414062 57.46875 158.414062 56.210938 L 158.414062 38.710938 C 158.414062 37.589844 158.484375 37.101562 158.761719 36.890625 C 159.109375 36.679688 159.878906 36.609375 161.832031 36.609375 C 163.785156 36.609375 164.761719 36.75 165.386719 37.519531 C 165.945312 38.148438 166.296875 38.710938 166.503906 40.109375 C 167.0625 40.460938 167.761719 40.320312 168.109375 39.96875 C 168.039062 38.359375 167.761719 35.910156 167.410156 35 Z M 167.410156 35 "/>
<path style=" stroke:none;fill-rule:nonzero;fill:rgb(7.058824%,17.647059%,17.647059%);fill-opacity:1;" d="M 192.246094 59.570312 C 190.570312 59.851562 189.523438 58.660156 188.757812 57.328125 C 187.78125 55.648438 186.941406 53.828125 185.6875 51.449219 C 185.199219 50.46875 184.011719 48.929688 182.269531 48.71875 L 182.269531 48.578125 C 186.105469 47.738281 188.199219 45.148438 188.199219 41.789062 C 188.199219 37.171875 185.476562 35.070312 178.433594 35 L 173.96875 35.140625 C 172.503906 35.140625 171.039062 35.070312 170.621094 35 C 170.480469 35.140625 170.410156 35.488281 170.410156 35.769531 C 170.410156 36.050781 171.527344 36.820312 171.875 37.238281 C 172.15625 37.589844 172.15625 38.429688 172.15625 39.480469 L 172.15625 56.28125 C 172.15625 57.398438 172.15625 58.171875 171.804688 58.519531 C 171.457031 58.941406 170.410156 59.640625 170.410156 59.921875 C 170.410156 60.128906 170.480469 60.480469 170.621094 60.621094 C 171.179688 60.621094 171.734375 60.480469 173.898438 60.480469 C 174.945312 60.480469 177.246094 60.621094 177.59375 60.621094 C 177.734375 60.480469 177.804688 60.128906 177.804688 59.921875 C 177.804688 59.570312 176.6875 59.011719 176.339844 58.589844 C 176.0625 58.238281 175.851562 57.539062 175.851562 56.210938 L 175.851562 49.839844 C 175.851562 49.351562 175.921875 49 176.898438 49 C 178.292969 49 179.617188 49.140625 180.035156 49.421875 C 180.875 49.910156 181.433594 50.679688 182.476562 53.058594 C 183.453125 55.441406 184.152344 56.980469 185.269531 58.800781 C 186.035156 60.058594 187.5 61.039062 190.152344 61.039062 C 191.128906 61.039062 192.035156 60.96875 192.246094 60.898438 C 192.59375 60.828125 192.734375 59.78125 192.246094 59.570312 Z M 179.058594 47.601562 C 176.898438 47.601562 176.199219 47.53125 175.992188 47.25 C 175.851562 47.109375 175.851562 46.691406 175.851562 46.480469 L 175.851562 39.480469 C 175.851562 37.589844 175.921875 37.238281 176.269531 36.890625 C 176.550781 36.679688 177.457031 36.539062 178.78125 36.539062 C 182.269531 36.539062 184.222656 38.078125 184.222656 42 C 184.292969 45.851562 182.339844 47.601562 179.058594 47.601562 Z M 179.058594 47.601562 "/>
<path style=" stroke:none;fill-rule:nonzero;fill:rgb(7.058824%,17.647059%,17.647059%);fill-opacity:1;" d="M 205.148438 34.578125 C 197.40625 34.578125 191.964844 40.109375 191.964844 47.949219 C 191.964844 55.160156 196.429688 61.109375 204.800781 61.109375 C 212.683594 61.109375 217.773438 55.371094 217.773438 47.601562 C 217.773438 39.410156 212.683594 34.578125 205.148438 34.578125 Z M 205.078125 59.5 C 199.570312 59.5 196.011719 55.300781 196.011719 47.320312 C 196.011719 40.179688 199.429688 36.050781 204.660156 36.050781 C 209.960938 36.050781 213.589844 39.898438 213.589844 48.089844 C 213.589844 55.441406 210.171875 59.5 205.078125 59.5 Z M 205.078125 59.5 "/>
<path style=" stroke:none;fill-rule:nonzero;fill:rgb(7.058824%,17.647059%,17.647059%);fill-opacity:1;" d="M 236.257812 54.949219 C 235.980469 55.859375 235.492188 56.488281 234.933594 57.261719 C 234.097656 58.449219 232.773438 58.941406 230.398438 58.941406 C 228.65625 58.941406 226.980469 58.871094 226.355469 58.519531 C 225.796875 58.238281 225.515625 57.609375 225.515625 55.929688 L 225.515625 39.410156 C 225.515625 38.148438 225.515625 37.449219 225.9375 37.03125 C 226.285156 36.679688 227.609375 35.980469 227.609375 35.699219 C 227.609375 35.488281 227.609375 35.140625 227.402344 34.929688 C 226.914062 35 224.539062 35 223.496094 35 C 222.03125 35 220.703125 34.929688 220.214844 34.929688 C 220.078125 35.070312 220.007812 35.421875 220.007812 35.699219 C 220.007812 35.980469 221.121094 36.75 221.472656 37.171875 C 221.75 37.519531 221.75 38.359375 221.75 39.410156 L 221.75 56.28125 C 221.75 57.328125 221.75 58.101562 221.472656 58.449219 C 221.121094 58.871094 220.078125 59.570312 220.078125 59.78125 C 220.078125 60.128906 220.144531 60.339844 220.355469 60.550781 C 220.914062 60.550781 222.449219 60.410156 224.332031 60.410156 C 227.679688 60.410156 233.050781 60.480469 236.328125 60.550781 C 236.957031 59.429688 237.65625 55.859375 237.722656 55.089844 C 237.585938 54.878906 236.679688 54.601562 236.257812 54.949219 Z M 236.257812 54.949219 "/>
<path style=" stroke:none;fill-rule:nonzero;fill:rgb(7.058824%,17.647059%,17.647059%);fill-opacity:1;" d="M 251.394531 47.109375 C 249.792969 46.410156 248.046875 45.710938 246.445312 44.941406 C 243.933594 43.75 242.886719 42.558594 242.886719 40.53125 C 242.886719 38.289062 244.28125 36.121094 248.1875 36.121094 C 251.257812 36.121094 252.792969 37.171875 253.628906 40.949219 C 254.046875 41.441406 255.09375 41.230469 255.234375 40.808594 C 255.234375 39.761719 255.09375 36.820312 254.605469 35.628906 C 253.140625 35 251.464844 34.578125 248.464844 34.578125 C 243.234375 34.578125 239.886719 37.660156 239.886719 41.578125 C 239.886719 44.941406 241.421875 46.96875 244.210938 48.300781 C 246.09375 49.210938 247.976562 49.910156 249.441406 50.679688 C 251.535156 51.660156 252.929688 52.988281 252.929688 54.878906 C 252.929688 57.609375 251.328125 59.570312 247.210938 59.570312 C 243.792969 59.570312 241.5625 57.679688 240.863281 54.039062 C 240.652344 53.761719 239.539062 53.691406 239.257812 54.179688 C 239.257812 55.089844 239.609375 58.238281 240.097656 59.570312 C 241.421875 60.410156 244.140625 61.109375 246.863281 61.109375 C 251.882812 61.109375 256 58.660156 256 53.550781 C 256 50.679688 254.8125 48.578125 251.394531 47.109375 Z M 251.394531 47.109375 "/>
<path style=" stroke:none;fill-rule:nonzero;fill:rgb(7.058824%,17.647059%,17.647059%);fill-opacity:1;" d="M 88.378906 22.75 C 86.496094 24.570312 84.613281 25.898438 80.984375 25.898438 C 75.753906 25.898438 71.777344 22.121094 71.777344 14.839844 C 71.777344 6.859375 75.613281 3.21875 80.566406 3.21875 C 84.753906 3.21875 85.796875 4.828125 86.425781 6.019531 C 86.914062 6.789062 87.195312 8.050781 87.472656 9.238281 C 87.820312 9.589844 88.726562 9.589844 89.078125 9.101562 C 89.078125 8.121094 88.9375 4.550781 88.449219 3.359375 C 86.496094 2.449219 84.402344 1.679688 80.636719 1.679688 C 72.335938 1.679688 67.664062 7.488281 67.664062 15.191406 C 67.664062 22.191406 71.917969 28.210938 80.078125 28.210938 C 84.542969 28.210938 87.683594 26.25 89.285156 23.660156 C 89.355469 23.171875 88.9375 22.75 88.378906 22.75 Z M 88.378906 22.75 "/>
<path style=" stroke:none;fill-rule:nonzero;fill:rgb(7.058824%,17.647059%,17.647059%);fill-opacity:1;" d="M 116.351562 2.101562 C 115.722656 2.171875 115.09375 2.238281 113.5625 2.238281 C 112.234375 2.238281 111.328125 2.171875 110.839844 2.101562 C 110.699219 2.308594 110.632812 2.519531 110.632812 2.800781 C 110.632812 3.078125 111.398438 3.78125 111.816406 4.199219 C 112.304688 4.550781 112.375 5.109375 112.445312 6.230469 C 112.585938 7.558594 112.652344 13.648438 112.652344 16.03125 C 112.652344 21.839844 112.234375 26.390625 105.191406 26.390625 C 101.910156 26.390625 97.9375 25.550781 97.9375 17.78125 L 97.9375 6.441406 C 97.9375 5.179688 98.003906 4.550781 98.355469 4.199219 C 98.632812 3.921875 99.820312 3.148438 99.820312 2.800781 C 99.820312 2.589844 99.679688 2.238281 99.609375 2.101562 C 99.121094 2.171875 96.960938 2.238281 95.914062 2.238281 C 94.449219 2.238281 93.191406 2.238281 92.773438 2.171875 C 92.566406 2.308594 92.496094 2.589844 92.496094 2.871094 C 92.496094 3.078125 93.609375 3.851562 93.890625 4.339844 C 94.167969 4.691406 94.167969 5.53125 94.167969 6.578125 L 94.167969 18.621094 C 94.167969 26.390625 98.355469 28.28125 104.492188 28.28125 C 111.539062 28.28125 114.398438 24.78125 114.398438 18.410156 C 114.398438 16.238281 114.328125 8.609375 114.398438 7.070312 C 114.398438 5.53125 114.605469 4.691406 114.957031 4.339844 C 115.375 3.921875 116.492188 3.21875 116.492188 2.941406 C 116.558594 2.589844 116.421875 2.308594 116.351562 2.101562 Z M 116.351562 2.101562 "/>
<path style=" stroke:none;fill-rule:nonzero;fill:rgb(7.058824%,17.647059%,17.647059%);fill-opacity:1;" d="M 158.902344 3.640625 C 156.390625 2.449219 153.25 2.171875 150.601562 2.171875 L 145.089844 2.308594 C 143.835938 2.308594 141.882812 2.171875 141.601562 2.171875 C 141.394531 2.308594 141.324219 2.660156 141.324219 2.941406 C 141.324219 3.148438 142.300781 3.78125 142.648438 4.269531 C 142.996094 4.691406 142.996094 5.320312 142.996094 6.511719 L 142.996094 23.449219 C 142.996094 24.710938 142.996094 25.339844 142.578125 25.691406 C 142.160156 26.109375 141.253906 26.738281 141.253906 27.089844 C 141.253906 27.441406 141.394531 27.648438 141.53125 27.789062 C 141.949219 27.789062 143.277344 27.71875 144.8125 27.71875 C 145.71875 27.71875 147.878906 27.789062 149.902344 27.789062 C 153.460938 27.789062 156.738281 27.300781 159.179688 25.898438 C 163.15625 23.660156 164.761719 19.390625 164.761719 14.628906 C 164.761719 9.519531 162.945312 5.53125 158.902344 3.640625 Z M 151.4375 26.039062 C 148.578125 26.039062 147.460938 25.761719 147.042969 24.921875 C 146.695312 24.21875 146.695312 23.449219 146.695312 22.191406 L 146.695312 6.089844 C 146.695312 4.96875 146.765625 4.410156 147.042969 4.058594 C 147.53125 3.570312 148.019531 3.570312 150.460938 3.570312 C 157.085938 3.570312 160.644531 6.929688 160.644531 15.121094 C 160.644531 22.398438 157.085938 26.039062 151.4375 26.039062 Z M 151.4375 26.039062 "/>
<path style=" stroke:none;fill-rule:nonzero;fill:rgb(7.058824%,17.647059%,17.647059%);fill-opacity:1;" d="M 181.011719 1.679688 C 173.269531 1.679688 167.828125 7.210938 167.828125 15.050781 C 167.828125 22.261719 172.292969 28.210938 180.664062 28.210938 C 188.546875 28.210938 193.640625 22.46875 193.640625 14.699219 C 193.640625 6.578125 188.546875 1.679688 181.011719 1.679688 Z M 180.945312 26.671875 C 175.433594 26.671875 171.875 22.46875 171.875 14.488281 C 171.875 7.351562 175.292969 3.21875 180.523438 3.21875 C 185.828125 3.21875 189.453125 7.070312 189.453125 15.191406 C 189.453125 22.609375 186.035156 26.671875 180.945312 26.671875 Z M 180.945312 26.671875 "/>
<path style=" stroke:none;fill-rule:nonzero;fill:rgb(7.058824%,17.647059%,17.647059%);fill-opacity:1;" d="M 136.71875 22.121094 C 136.441406 23.03125 136.023438 23.660156 135.394531 24.429688 C 134.558594 25.621094 133.230469 26.109375 130.859375 26.109375 C 129.117188 26.109375 127.441406 26.039062 126.8125 25.691406 C 126.257812 25.410156 125.976562 24.78125 125.976562 23.101562 L 125.976562 15.960938 C 125.976562 15.398438 126.046875 15.121094 127.023438 15.121094 C 129.464844 15.121094 130.164062 15.191406 130.71875 15.539062 C 131.417969 15.890625 132.183594 17.5 132.464844 17.5 C 132.742188 17.5 133.023438 17.359375 133.230469 17.21875 C 133.230469 16.730469 133.160156 16.101562 133.160156 14.488281 C 133.160156 13.230469 133.300781 11.898438 133.300781 11.550781 C 133.160156 11.410156 132.882812 11.339844 132.605469 11.339844 C 132.324219 11.339844 131.417969 12.738281 130.929688 13.160156 C 130.441406 13.578125 129.253906 13.71875 127.023438 13.71875 C 126.1875 13.71875 125.976562 13.511719 125.976562 12.878906 L 125.976562 5.738281 C 125.976562 4.621094 126.046875 4.269531 126.257812 3.988281 C 126.464844 3.710938 126.8125 3.710938 129.394531 3.710938 C 131.90625 3.710938 132.882812 3.921875 133.582031 4.480469 C 134.277344 5.039062 134.695312 5.808594 135.046875 7.351562 C 135.253906 7.558594 136.160156 7.628906 136.511719 7.210938 C 136.511719 6.089844 136.230469 2.941406 135.742188 2.03125 C 133.71875 2.101562 128.488281 2.171875 124.792969 2.171875 C 123.046875 2.171875 120.953125 2.171875 120.398438 2.03125 C 120.1875 2.171875 120.046875 2.519531 120.046875 2.800781 C 120.046875 3.078125 121.722656 3.851562 122 4.339844 C 122.28125 4.761719 122.28125 5.390625 122.28125 6.441406 L 122.28125 23.449219 C 122.28125 24.5 122.28125 25.269531 122 25.621094 C 121.652344 26.039062 120.046875 26.738281 120.046875 26.949219 C 120.046875 27.300781 120.117188 27.511719 120.328125 27.71875 C 120.816406 27.71875 122.976562 27.578125 124.859375 27.578125 C 128.210938 27.578125 135.183594 27.71875 136.859375 27.71875 C 137.488281 26.738281 138.253906 23.03125 138.253906 22.261719 C 137.765625 21.839844 137 21.980469 136.71875 22.121094 Z M 136.71875 22.121094 "/>
</g>
</svg>
