<?xml version="1.0" encoding="UTF-8"?>
<!DOCTYPE svg PUBLIC "-//W3C//DTD SVG 1.1//EN" "http://www.w3.org/Graphics/SVG/1.1/DTD/svg11.dtd">
<!-- Creator: CorelDRAW X5 -->
<svg xmlns="http://www.w3.org/2000/svg" xml:space="preserve" width="248px" height="211px" style="shape-rendering:geometricPrecision; text-rendering:geometricPrecision; image-rendering:optimizeQuality; fill-rule:evenodd; clip-rule:evenodd" viewBox="600 600 5000 5000" xmlns:xlink="http://www.w3.org/1999/xlink">
 <defs>
  <clipPath id="id0" style="clip-rule:nonzero">
   <rect x="3718" y="-9183" width="8027" height="11033" style=""/>
  </clipPath>
 </defs>
<symbol id="Fm1-7-0" viewBox="3000 -10333 10056 13333">
 <polygon points="3000,3000 13056,3000 13056,-10333 3000,-10333 " style=" fill: white; fill-rule: nonzero; "/>
</symbol>
 <g id="Layer_x0020_1">
  <metadata id="CorelCorpID_0Corel-Layer"/>
  <path d="M2780 1714c0,22 -152,552 15,717 167,164 177,274 296,244 119,-30 393,-194 527,-231 134,-37 435,-107 443,-119 7,-12 81,-135 81,-135 0,0 -86,-366 -71,-370 15,-4 -107,-184 -224,-216 -117,-32 -836,-117 -893,-117 -57,0 -174,229 -174,229z" style=" fill: white; "/>
  <path d="M3918 2739l150 167c0,0 249,85 314,124 65,40 819,304 819,304l388 115 83 -75 0 -133 -160 -74c0,0 -155,-21 -226,-29 -71,-9 -219,-45 -219,-45l-112 -55 -71 -71 -174 16c0,0 -215,-111 -289,-144 -73,-34 -165,-94 -165,-94 0,0 -73,-34 -93,-29 -20,4 -118,-91 -118,-91 0,0 -1797,-798 -1732,-796 66,2 -323,-26 -323,-26l-255 -143 -162 -68 -241 -139 46 98c0,0 -78,-33 -80,-25 -3,9 -238,-73 -443,-22 -205,51 -396,220 -446,547 -51,327 5,932 128,1197 123,265 341,463 596,431 256,-31 496,-282 564,-374 68,-92 99,-171 99,-171l-73 30c0,0 -26,38 -128,49 -101,11 -177,4 -177,4 0,0 -44,-27 -51,-11 -7,15 19,58 40,72 21,14 71,37 71,37 0,0 -22,70 -121,89 -99,18 -175,35 -172,23 3,-13 -144,-93 -144,-93l-179 -237c0,0 -59,-124 -68,-459 -9,-335 110,-702 475,-661 365,41 754,238 754,238l1896 523z" style=" fill: rgb(237, 229, 207); "/>
  <path d="M4840 2958c0,0 -19,49 8,76 27,27 84,45 84,45 0,0 74,65 300,121 226,56 439,47 439,47l-57 -53c0,0 -179,-25 -186,-27 -7,-1 -101,-7 -178,-26 -77,-19 -91,-11 -135,-29 -44,-18 -85,-45 -104,-49 -20,-4 -106,-59 -106,-59l-64 -48z" style=" fill: rgb(245, 241, 230); "/>
  <path d="M396 2163c0,0 238,-665 785,-526 547,139 845,284 845,284l12 -87 -71 -54c0,0 -220,-98 -217,-104 3,-6 -231,-126 -238,-131 -6,-5 -193,-99 -193,-99l39 97c0,0 -112,-22 -131,-26 -19,-5 -214,-34 -305,-25 -92,9 -302,92 -376,215 -74,122 -143,286 -135,287 7,2 -16,168 -16,168z" style=" fill: rgb(245, 241, 230); "/>
  <path d="M492 3133c0,0 202,458 598,450 396,-7 694,-406 684,-423 -10,-17 55,-40 55,-40l-54 82 -282 334 -148 81 -129 51 -111 16 -89 -5 -81 -19 -106 -49 -70 -50 -77 -76 -62 -82 -83 -154 -45 -116z" style=" fill: rgb(185, 179, 161);  stroke: rgb(185, 179, 161); stroke-width: 6.94488; "/>
  <path d="M1520 3317c0,0 -269,304 -550,10 -281,-294 -316,-717 -177,-1164 139,-448 612,-323 826,-244 214,80 398,156 398,156l29 154c0,0 -180,-107 -469,-182 -289,-76 -470,-136 -642,52 -173,188 -155,610 -146,709 9,99 51,375 252,527 201,152 310,72 480,-17z" style=" fill: rgb(185, 179, 161);  stroke: rgb(185, 179, 161); stroke-width: 6.94488; "/>
  <path d="M3120 1196l520 -31 236 136c0,0 174,338 216,536 42,198 43,358 56,368 13,10 143,151 104,241 -39,90 -190,299 -252,334 -62,35 -351,162 -402,184 -51,23 -332,53 -358,72 -26,19 -126,28 -162,15 -36,-14 -114,-129 -199,-180 -85,-51 -125,-175 -189,-280 -65,-105 -85,-149 -199,-328 -114,-179 -144,-463 -75,-622 70,-159 35,-259 254,-358 219,-100 450,-87 450,-87z" style=" fill: rgb(250, 200, 162);  stroke: rgb(55, 52, 53); stroke-width: 6.94488; "/>
  <path d="M2771 3185c0,0 141,29 246,54 105,25 168,16 432,-43 265,-59 281,-46 342,-116 61,-70 61,-70 61,-70l180 110 82 90 32 16 -51 -174 -24 -91 -68 -11 -30 -32c0,0 -16,-40 -36,-37 -20,3 -78,-7 -78,-7 0,0 -25,-20 -38,-12 -13,8 -540,168 -540,168l-327 30 -183 123z" style=" fill: rgb(44, 41, 42);  stroke: rgb(44, 41, 42); stroke-width: 6.94488; "/>
  <path d="M2037 1808c0,0 -279,-107 -447,-206 -168,-100 -270,-155 -270,-155l66 119c0,0 -231,-90 -418,-78 -187,12 -682,114 -573,1170 109,1056 660,1127 959,954 299,-172 493,-522 493,-522 0,0 -100,77 -226,117 -126,41 -255,0 -255,0 0,0 -34,-18 10,41 44,59 114,71 114,71 0,0 -219,234 -466,0 -248,-234 -265,-467 -211,-860 53,-393 219,-571 602,-461 384,109 602,214 602,214" style=" fill: none; fill-rule: nonzero;  stroke: rgb(173, 166, 146); stroke-width: 49.7638; "/>
  <path d="M2493 1869c0,0 195,-393 440,-426 245,-33 316,42 526,18 209,-24 249,-67 334,-110 86,-44 109,2 109,2 0,0 -9,-80 -100,-94 -91,-14 -195,28 -259,42 -64,14 -15,34 -166,19 -150,-15 -216,-56 -351,-40 -135,16 -244,39 -309,110 -65,71 -171,194 -157,200 14,6 -67,280 -67,280z" style=" fill: rgb(250, 204, 170); "/>
  <path d="M3770 1822c0,0 46,171 100,246 54,76 54,76 54,76l70 -5 86 -28 -16 -113c0,0 -90,-221 -189,-235 -98,-14 -88,70 -88,70l-17 -10z" style=" fill: white; "/>
  <polygon points="2895,1933 2863,2171 2912,2324 3025,2463 3069,2505 3163,2400 3349,2341 3320,2111 3282,1927 3221,1784 " style=" fill: white; "/>
  <path d="M2033 1866c0,0 -117,-300 -122,-407 -5,-107 2,-201 113,-222 111,-21 347,-11 347,-11 0,0 387,-187 727,-203 341,-16 352,8 352,8 0,0 95,-100 169,-105 75,-5 176,191 195,255 19,64 19,64 19,64 0,0 -84,-6 -227,33 -143,39 -287,42 -380,27 -93,-15 -130,-38 -268,-22 -138,16 -276,121 -323,200 -47,79 -180,316 -147,493 32,177 68,322 175,440 106,118 163,172 163,172 0,0 -40,187 52,283 92,97 239,176 239,176 0,0 422,32 442,27 20,-5 320,-98 320,-98l224 226 63 68 62 -135 34 -109c0,0 -15,-152 33,-244 49,-92 175,-231 315,-184 141,47 168,253 141,344 -27,91 -157,307 -157,307l-92 163 -130 168c0,0 -166,45 -186,47 -20,2 -148,37 -148,37l-148 251c0,0 -11,257 16,388 26,131 37,253 81,277 43,24 137,35 188,40 51,5 146,-102 159,-91 13,11 201,-217 201,-217l74 105c0,0 28,148 16,232 -12,84 -197,270 -197,270 0,0 -194,80 -249,97 -55,17 -105,72 -216,-17 -112,-90 -157,-100 -194,-164 -37,-65 -135,-219 -135,-219 0,0 -79,104 -107,186 -27,82 -435,343 -435,343 0,0 -221,-17 -251,-30 -30,-12 -159,-64 -157,-47 2,17 -148,-101 -161,-153 -14,-52 -24,-150 -23,-166 1,-16 20,-97 20,-97 0,0 -15,-192 -72,-178 -57,13 -76,-33 -76,-71 0,-38 -21,-123 -12,-161 9,-38 35,-91 101,-64 66,27 115,171 199,206 83,35 162,55 252,15 90,-40 275,-174 276,-209 2,-35 88,-136 89,-164 1,-28 31,-208 55,-271 24,-63 9,-133 -36,-198 -45,-64 -134,-77 -219,-40 -85,37 -122,4 -114,38 8,34 28,30 123,96 95,66 149,128 196,177 47,49 51,122 -2,167 -53,45 -127,63 -199,80 -73,18 -189,60 -235,21 -46,-39 -82,-87 -83,-102 -1,-15 25,-86 46,-96 21,-10 84,-42 84,-42l-103 -38 -236 -102 -117 -93 -11 -97 133 -182 135 -108 167 -115 92 -61 -233 -50 -171 -94 -149 -66 -130 -111c0,0 -207,-245 -237,-442 -30,-198 -29,-229 -1,-434z" style=" fill: rgb(56, 52, 53);  stroke: rgb(33, 33, 33); stroke-width: 3; "/>
  <path d="M3571 2538c0,0 163,40 169,45 6,5 44,52 44,61 0,9 2,58 -5,61 -7,2 -61,48 -76,45 -15,-3 -71,40 -82,41 -11,1 -65,-11 -75,-20 -10,-9 -32,-25 -42,-40 -10,-15 -25,-50 -44,-59 -18,-9 -16,-56 -18,-67 -2,-11 9,-17 0,-40 -9,-23 31,-42 31,-42 0,0 76,32 87,24 11,-9 11,-9 11,-9z" style=" fill: rgb(233, 153, 129); "/>
  <path d="M2971 2968c0,0 179,76 622,-71 443,-147 652,-417 652,-417l-61 111 -169 192 -250 109 -216 96 -208 36 -143 37 -88 -36 -84 -26 -54 -29z" style=" fill: rgb(195, 156, 126);  stroke: rgb(195, 156, 126); stroke-width: 6.94488; "/>
  <path d="M4266 2904c0,0 126,-194 264,-203 138,-9 248,93 235,96 -13,2 -73,-140 -73,-140l-60 -50c0,0 -3,-7 -57,-18 -54,-11 -91,16 -128,26 -37,10 -72,41 -92,64 -20,22 -29,50 -44,76 -14,27 -24,47 -30,63 -6,17 -15,85 -15,85z" style=" fill: rgb(78, 75, 75); "/>
  <path d="M2475 2902c0,0 174,43 301,53 127,10 194,13 194,13l138 55 -19 28c0,0 -94,0 -107,0 -12,1 -127,-10 -127,-10l-100 -18 -70 -20 -76 -30 -135 -71z" style=" fill: rgb(44, 41, 42);  stroke: rgb(44, 41, 42); stroke-width: 6.94488; "/>
  <path d="M4719 3065c-7,-4 9,40 42,51 34,11 125,2 125,2 0,0 -3,27 146,74 149,47 297,137 444,157 147,20 200,-31 200,-31l-9 79 -42 43 -78 17 -75 -7 -83 -19c0,0 -98,-30 -105,-33 -7,-2 -184,-60 -184,-60l-192 -87c0,0 -111,-62 -114,-56 -3,6 -64,11 -64,11l-51 -11 -26 -22 -6 -23 70 -85z" style=" fill: rgb(185, 179, 161);  stroke: rgb(185, 179, 161); stroke-width: 6.94488; "/>
  <path d="M2511 4865c0,0 221,331 642,204 420,-127 500,-694 500,-694 0,0 71,646 506,593 435,-52 473,-460 473,-460l-8 214 -165 230 -193 116 -149 26 -163 -19 -153 -67 -103 -126 -46 -147 -12 -72 -30 45 -20 112 -64 164 -70 84 -132 90 -218 80 -227 18 -91 -25 -86 -48c0,0 -38,-66 -47,-57 -9,9 -39,-50 -39,-50 0,0 -32,-42 -35,-47 -2,-5 -45,-67 -48,-76 -3,-9 -24,-88 -24,-88z" style=" fill: rgb(44, 41, 42);  stroke: rgb(44, 41, 42); stroke-width: 6.94488; "/>
  <path d="M4094 2682c0,0 34,1 42,17 8,16 8,29 8,29" style=" fill: none; fill-rule: nonzero;  stroke: rgb(173, 166, 146); stroke-width: 49.7638; "/>
  <path d="M4651 3168c0,0 39,54 92,36 53,-18 116,-63 158,-98 42,-35 59,-54 59,-54 0,0 -23,-67 -77,-86 -54,-18 -87,0 -87,0l-64 36" style=" fill: none; fill-rule: nonzero;  stroke: rgb(173, 166, 146); stroke-width: 49.7638; "/>
  <path d="M4775 3193c0,0 297,133 504,203 207,70 377,106 403,-42 26,-147 -44,-178 -315,-209 -272,-30 -278,-35 -300,-54 -23,-20 -106,-40 -106,-40" style=" fill: none; fill-rule: nonzero;  stroke: rgb(173, 166, 146); stroke-width: 49.7638; "/>
  <path d="M2855 2281c-10,-5 -48,-247 58,-420 107,-173 245,-197 335,-95 90,102 97,185 80,162 -17,-23 -46,-75 -46,-75 0,0 54,194 67,307 13,113 -1,191 -1,191 0,0 22,0 41,19 19,19 25,36 -7,23 -32,-13 -59,-17 -161,23 -102,40 -116,65 -152,89 -36,24 -37,13 -30,-1 7,-14 11,-18 11,-18 0,0 -43,-35 -90,-97 -47,-62 -94,-131 -94,-131 0,0 2,29 -11,23zm8 -110c74,192 214,299 214,299l18 -15c0,0 -18,-31 -34,-67 -16,-36 -28,-95 -28,-95 0,0 57,26 76,-33 30,-92 -58,-117 -58,-117 0,0 52,-105 137,-53 85,52 132,174 132,174 0,0 -9,-118 -38,-254 -29,-136 -61,-226 -61,-226 0,0 -131,-114 -262,67 -85,117 -102,304 -96,320z" style=" fill: rgb(201, 129, 129); fill-rule: nonzero; "/>
  <path d="M3770 1822c0,0 -8,7 -15,26 -7,19 -25,17 0,-29 25,-46 73,-113 152,-64 79,49 136,130 162,186 26,57 26,79 26,99 0,19 -31,-42 -31,-42 0,0 9,43 16,113 7,70 5,106 5,106 0,0 44,30 0,16 -44,-14 -74,-20 -109,-15 -35,5 -69,25 -60,9 10,-16 16,-16 16,-16 0,0 -84,-91 -117,-187 -33,-96 -48,-174 -46,-201zm21 -20c36,242 106,303 106,303 0,0 -17,-86 20,-133 37,-46 78,-5 78,-5 0,0 -13,54 4,91 18,37 46,-19 46,-19 0,0 -2,-16 -9,-53 -7,-37 -21,-72 -21,-72 0,0 -20,-45 -99,-112 -79,-67 -127,-10 -125,0z" style=" fill: rgb(201, 129, 129); fill-rule: nonzero; "/>
  <path d="M3728 2244c123,-49 178,-16 188,12 10,28 -19,91 -125,124 -115,36 -177,-14 -167,-52 10,-38 63,-67 105,-84z" style=" fill: rgb(201, 129, 129); fill-rule: nonzero; "/>
  <path d="M2110 1998c0,0 -17,-42 -94,-271 -77,-229 -109,-365 -59,-426 50,-61 222,-63 374,-41 152,22 226,59 226,59 0,0 -17,-31 -78,-57 -61,-26 -120,-47 -220,-57 -100,-10 -266,-19 -345,68 -79,87 -5,285 43,410 48,125 106,254 154,314z" style=" fill: black; fill-rule: nonzero; "/>
  <path d="M3259 3036c0,0 -278,20 -380,-164 -102,-185 -37,-275 -37,-275 0,0 -454,-332 -333,-810 121,-478 390,-539 635,-495 245,43 339,38 463,-13 124,-51 186,-49 247,2" style=" fill: none; fill-rule: nonzero;  stroke: rgb(33, 33, 33); stroke-width: 49.7638; "/>
  <path d="M2827 2623c0,0 -190,92 -360,319 -170,226 -223,317 -221,421 2,105 -68,96 -72,11 -4,-85 24,-202 203,-408 179,-206 450,-343 450,-343z" style=" fill: none; fill-rule: nonzero;  stroke: rgb(33, 33, 33); stroke-width: 29.8583; "/>
  <path d="M2827 2588c0,0 -426,123 -696,425 -83,93 -176,209 -222,302 -33,66 -6,68 -1,76 18,27 59,-30 75,-53 84,-119 259,-360 399,-469 175,-135 445,-280 445,-280z" style=" fill: none; fill-rule: nonzero;  stroke: rgb(33, 33, 33); stroke-width: 29.8583; "/>
  <path d="M4180 2184c0,0 76,-105 321,-116 282,-13 317,88 287,115 -30,27 -72,-48 -190,-58 -118,-10 -221,-11 -281,9 -60,20 -112,44 -112,44 0,0 146,-26 278,21 132,47 149,89 119,121 -30,31 -35,-25 -151,-75 -136,-60 -271,-60 -271,-60z" style=" fill: none; fill-rule: nonzero;  stroke: rgb(33, 33, 33); stroke-width: 29.8583; "/>
  <polygon points="4169,3314 4157,3350 " style=" fill: black; fill-rule: nonzero; "/>
  <polygon points="4146,3302 4169,3314 4157,3354 4139,3325 " style=" fill: black; fill-rule: nonzero; "/>
  <path d="M2630 5099c0,0 161,-32 222,-1 61,32 184,156 184,156l-149 3 -130 -41c0,0 -92,-44 -94,-56 -2,-12 -33,-62 -33,-62z" style=" fill: rgb(123, 170, 189);  stroke: rgb(55, 52, 53); stroke-width: 6.94488; "/>
  <path d="M3827 5023c0,0 108,-39 167,-18 59,21 158,83 158,83 0,0 148,-15 145,-22 -3,-8 35,-37 35,-37l15 -114c0,0 92,-48 132,-93 40,-45 74,-93 74,-93l46 19 -22 49c0,0 -98,137 -107,146 -9,9 -92,97 -97,88 -5,-9 -130,45 -149,49 -19,4 -87,14 -105,14 -18,0 -76,-2 -90,-4 -14,-2 -185,-43 -185,-43l-17 -24z" style=" fill: rgb(123, 170, 189); "/>
  <path d="M3216 3460c0,0 14,-8 33,-21 23,-16 34,7 25,30 -9,23 -33,32 -38,35 -5,3 -20,-44 -20,-44z" style=" fill: black; fill-rule: nonzero; "/>
  <path d="M3802 5008c0,0 101,-23 191,-3 90,20 166,90 166,90" style=" fill: none;  stroke: rgb(33, 33, 33); stroke-width: 55.5551; "/>
  <path d="M2618 5102c0,0 139,-46 245,0 106,46 176,157 176,157" style=" fill: none;  stroke: rgb(33, 33, 33); stroke-width: 55.5551; "/>
  <path d="M3974 2776l80 14c0,0 -29,71 22,80 51,9 138,-11 138,-11l53 9 -3 89 5 45 -38 1 -67 -26 -27 -28 -39 5 -60 14 -34 -15 -30 -32 -36 -37 -41 5 -76 -24 153 -88z" style=" fill: rgb(185, 179, 161);  stroke: rgb(185, 179, 161); stroke-width: 6.94488; "/>
  <path d="M2856 2193c0,0 29,-194 187,-299 158,-105 211,-36 211,-36l-11 -81 -90 -40 -62 1 -92 31 -72 92 -37 83 -29 96c0,0 -7,50 0,51 7,1 -5,101 -5,101z" style=" fill: rgb(199, 199, 199);  stroke: rgb(199, 199, 199); stroke-width: 6.94488; "/>
  <path d="M3787 1832c8,-1 41,-34 103,-4 62,30 148,112 148,112l-35 -80 -71 -73c0,0 -53,-24 -57,-25 -4,-1 -25,0 -26,-12 -1,-12 -42,7 -37,16 4,9 -27,20 -27,20l-4 16 6 30z" style=" fill: rgb(199, 199, 199);  stroke: rgb(199, 199, 199); stroke-width: 6.94488; "/>
  <path d="M2831 3508c0,0 89,3 215,-34 127,-37 236,-97 294,-2 57,95 76,218 44,347 -32,129 -98,198 -98,198l46 -137 3 -123 -45 -137 -46 -69 -63 -38 -120 54 -95 -10c0,0 -63,10 -67,-2 -4,-13 -67,-47 -67,-47z" style=" fill: rgb(44, 41, 42);  stroke: rgb(44, 41, 42); stroke-width: 6.94488; "/>
  <path d="M2774 4024c0,0 119,25 293,-17 174,-42 239,-121 239,-121l23 67 -51 75 -98 29 -196 41 -137 1 -74 -74z" style=" fill: rgb(44, 41, 42);  stroke: rgb(44, 41, 42); stroke-width: 6.94488; "/>
  <path d="M2361 4349c0,0 169,260 465,245 296,-15 570,-393 570,-393l-32 159 -130 189 -198 193 -124 85 -78 -56 -104 -87c0,0 -62,-11 -79,-34 -18,-23 -104,-15 -104,-15l-47 39 -46 -64 -57 -114 -35 -147z" style=" fill: rgb(44, 41, 42);  stroke: rgb(44, 41, 42); stroke-width: 6.94488; "/>
  <path d="M1905 1428c-23,3 77,-97 333,-107 256,-10 318,-1 318,-1l-57 -47c0,0 276,-164 652,-166 376,-2 653,108 653,108l-68 -60 -239 -114 -329 -23 -368 47 -382 131 -68 24 -110 14c0,0 -177,-2 -202,-2 -25,0 -132,90 -132,90l-2 107z" style=" fill: rgb(78, 75, 75); "/>
  <path d="M3731 3151c207,-36 287,-29 343,19 56,48 42,73 42,73 0,0 1,113 -315,168 -316,55 -438,30 -467,-70 -29,-100 189,-161 396,-190z" style=" fill: rgb(78, 75, 75); "/>
  <path d="M4285 3020c-12,2 102,129 248,29 146,-101 231,-236 231,-236l5 118 -36 90 -120 177 -66 31c0,0 -99,4 -100,11 -1,7 -84,-36 -84,-36 0,0 -14,-37 -22,-51 -7,-14 -55,-83 -55,-83 0,0 -27,6 -34,4 -7,-3 -15,50 -21,62 -6,12 -6,52 -19,55 -13,3 -16,34 -16,34 0,0 39,192 132,219 93,27 146,7 146,7 0,0 -92,125 -98,131 -6,6 -83,64 -90,67 -6,3 -90,25 -101,25 -10,0 -51,-21 -70,-19 -19,3 -46,-10 -46,-10l-3 -34 39 -98 28 -96 8 -81 28 -66 42 -107 54 -137 21 -6z" style=" fill: rgb(44, 41, 42);  stroke: rgb(44, 41, 42); stroke-width: 6.94488; "/>
  <path d="M2719 3222c0,0 21,51 -93,175 -114,124 -134,157 -147,182 -12,25 -22,69 -22,69l-28 -120c0,0 50,-60 42,-65 -8,-5 58,-88 58,-88l65 -58 79 -62 46 -34z" style=" fill: rgb(78, 75, 75);  stroke: rgb(78, 75, 75); stroke-width: 6.94488; "/>
  <path d="M2506 4707c0,0 117,16 224,93 107,77 245,95 293,89 49,-6 -15,-35 -28,-37 -13,-3 -91,-30 -91,-30l-71 -52 -71 -60 -48 -31 -64 -31 -90 -16 -38 20 -16 53z" style=" fill: rgb(78, 75, 75);  stroke: rgb(78, 75, 75); stroke-width: 6.94488; "/>
  <path d="M2973 4785c0,0 29,34 52,44 24,10 60,10 60,10 0,0 97,-35 185,-183 88,-148 143,-434 143,-434l-102 211 -134 170c0,0 -89,84 -96,99 -7,16 -109,81 -109,81z" style=" fill: rgb(78, 75, 75);  stroke: rgb(78, 75, 75); stroke-width: 6.94488; "/>
  <path d="M3889 4167c8,0 -65,113 -65,113 0,0 7,295 118,353 111,58 272,29 294,6 21,-22 21,-22 21,-22l-5 43c0,0 91,-125 187,-211 96,-86 160,-61 160,-61l-25 -65 -83 -25c0,0 -61,28 -68,34 -6,5 -48,72 -53,79 -5,7 -46,80 -66,94 -20,15 -57,70 -52,77 4,7 -19,20 -34,25 -15,5 -62,19 -83,20 -21,1 -68,-3 -75,-5 -8,-2 -44,-32 -53,-41 -9,-9 -25,-58 -40,-60 -15,-2 -17,-61 -25,-58 -8,2 -6,-49 -15,-60 -9,-10 -15,-44 -17,-61 -2,-17 -2,-108 -11,-120 -9,-12 -10,-56 -10,-56z" style=" fill: rgb(78, 75, 75);  stroke: rgb(78, 75, 75); stroke-width: 6.94488; "/>
  <path d="M4346 4915c0,0 90,-40 143,-104 53,-64 63,-82 63,-82l-39 -25c0,0 -68,12 -78,24 -10,12 -50,102 -56,100 -6,-3 -34,88 -34,88z" style=" fill: rgb(156, 218, 243); "/>
  <path d="M4403 3224c0,0 33,45 43,107 10,62 6,146 6,146l77 -104 79 -145 -27 -73 -177 70z" style=" fill: rgb(44, 41, 42);  stroke: rgb(44, 41, 42); stroke-width: 6.94488; "/>
  <path d="M3445 1039c0,0 66,-126 189,-113 123,12 200,319 200,319" style=" fill: none; fill-rule: nonzero;  stroke: rgb(33, 33, 33); stroke-width: 49.7638; "/>
  <path d="M2971 3052c0,0 -392,247 -482,368 -91,122 -103,212 68,299 171,87 413,165 413,165 0,0 -129,-25 -183,38 -54,63 -15,207 225,172 239,-34 285,-94 297,-147 13,-53 -9,-151 -160,-256 -151,-105 -274,-140 -274,-140 0,0 127,18 238,-16 111,-34 131,-56 131,-56" style=" fill: none; fill-rule: nonzero;  stroke: rgb(33, 33, 33); stroke-width: 49.7638; "/>
  <path d="M2367 4205c0,0 159,34 208,127 49,94 188,233 444,69 256,-164 242,-341 242,-341l-129 159 -202 138 -149 58 -81 -44 -72 -63 -99 -101 -52 -69 -73 -6 -37 74z" style=" fill: rgb(78, 75, 75);  stroke: rgb(78, 75, 75); stroke-width: 6.94488; "/>
  <path d="M4136 2948c0,0 22,31 61,48 39,17 76,-5 76,-5" style=" fill: none; fill-rule: nonzero;  stroke: rgb(173, 166, 146); stroke-width: 49.7638; "/>
  <path d="M3834 2861c0,0 51,42 104,21 53,-21 102,-80 154,-131 52,-51 118,-41 149,-18 32,23 62,56 62,56" style=" fill: none; fill-rule: nonzero;  stroke: rgb(173, 166, 146); stroke-width: 49.7638; "/>
  <path d="M4058 2966c0,0 43,89 70,174 27,85 22,174 22,174 0,0 22,-56 48,-121 26,-65 75,-203 75,-203" style=" fill: none; fill-rule: nonzero;  stroke: rgb(33, 33, 33); stroke-width: 49.7638; "/>
  <path d="M3953 2888c0,0 45,78 85,78 39,0 96,-19 166,-96 70,-77 100,-82 100,-82" style=" fill: none; fill-rule: nonzero;  stroke: rgb(173, 166, 146); stroke-width: 49.7638; "/>
  <path d="M4058 3638c0,0 141,99 294,-36 153,-135 284,-434 284,-434" style=" fill: none; fill-rule: nonzero;  stroke: rgb(33, 33, 33); stroke-width: 49.7638; "/>
  <path d="M4153 3377c0,0 98,-50 132,-34 35,16 52,60 49,72 -2,12 -15,100 -37,121 -22,21 -48,38 -62,42 -14,5 -53,13 -62,13 -9,0 -86,-34 -86,-34l66 -180z" style=" fill: rgb(156, 218, 243);  stroke: rgb(55, 52, 53); stroke-width: 6.94488; "/>
  <path d="M4235 3345c0,0 20,38 45,57 24,20 51,34 51,34 0,0 -17,38 -9,42 8,3 -24,72 -33,73 -9,1 -35,22 -63,26 -27,3 -64,12 -79,7 -15,-6 -59,-31 -59,-31 0,0 13,-59 20,-70 7,-11 25,-75 26,-87 2,-12 22,-33 25,-33 3,-1 75,-18 75,-18z" style=" fill: rgb(123, 170, 189); "/>
  <path d="M4153 3377c0,0 105,-61 160,-24 56,37 26,172 -57,215 -83,44 -166,18 -162,-29" style=" fill: none;  stroke: rgb(33, 33, 33); stroke-width: 55.5551; "/>
  <path d="M4347 5042c-3,-7 -30,-164 65,-276 95,-112 164,-62 177,6" style=" fill: none;  stroke: rgb(33, 33, 33); stroke-width: 55.5551; "/>
  <path d="M3390 4251c0,0 -45,183 -196,345 -151,161 -283,232 -283,232 0,0 -168,-125 -261,-178 -93,-53 -170,-27 -141,194 29,221 221,490 579,399 358,-91 463,-236 504,-423 42,-187 44,-403 44,-403 0,0 -39,456 168,591 206,135 547,131 740,-153 193,-285 48,-591 -68,-552 -116,39 -203,283 -203,283 0,0 -239,135 -319,-65 -80,-199 -53,-600 -53,-600 0,0 201,-314 237,-530 36,-216 -235,-378 -235,-378" style=" fill: none; fill-rule: nonzero;  stroke: rgb(33, 33, 33); stroke-width: 49.7638; "/>
  <path d="M3207 3513c0,0 238,200 73,515 -165,316 -517,392 -517,392 0,0 -125,-95 -206,-183 -101,-111 -186,-192 -197,44 -11,236 149,404 149,404" style=" fill: none; fill-rule: nonzero;  stroke: rgb(33, 33, 33); stroke-width: 49.7638; "/>
  <path d="M4574 2589c153,19 208,222 175,377 -33,155 -210,334 -343,268 -133,-66 -161,-298 -133,-390 39,-132 159,-272 301,-255z" style=" fill: none; fill-rule: nonzero;  stroke: rgb(33, 33, 33); stroke-width: 49.7638; "/>
  <path d="M3399 3209c0,0 80,59 114,88 34,29 75,64 75,64 0,0 -27,67 -50,110 -22,43 -57,97 -57,97l92 5c0,0 53,-97 75,-154 22,-57 29,-85 29,-85 0,0 -45,-50 -95,-90 -49,-39 -83,-61 -83,-61l-100 25z" style=" fill: rgb(156, 218, 243); "/>
  <path d="M3574 3174l103 -17c0,0 91,68 169,160 78,93 137,186 137,186l-83 27c0,0 -82,-183 -326,-356z" style=" fill: rgb(156, 218, 243); "/>
  <path d="M3734 3308c0,0 -19,77 -40,137 -21,60 -54,123 -54,123l91 -2c0,0 29,-60 46,-129 17,-70 14,-106 14,-106l-57 -22z" style=" fill: rgb(156, 218, 243); "/>
  <path d="M3846 3336c0,0 62,-2 119,-5 57,-2 74,-1 74,-1l49 77c0,0 -68,-9 -121,-13 -52,-4 -83,-2 -83,-2 0,0 -99,-80 -101,-84 -2,-4 -79,-95 -79,-95 0,0 60,-11 137,-16 77,-4 93,-4 93,-4l61 68c0,0 -88,-3 -134,-3 -46,0 -88,2 -88,2l71 75z" style=" fill: rgb(156, 218, 243); "/>
  <path d="M2855 2281c-10,-5 -48,-247 58,-420 107,-173 245,-197 335,-95 90,102 97,185 80,162 -17,-23 -46,-75 -46,-75 0,0 54,194 67,307 13,113 -1,191 -1,191 0,0 22,0 41,19 19,19 25,36 -7,23 -32,-13 -59,-17 -161,23 -102,40 -116,65 -152,89 -36,24 -37,13 -30,-1 7,-14 11,-18 11,-18 0,0 -43,-35 -90,-97 -47,-62 -94,-131 -94,-131 0,0 2,29 -11,23zm8 -110c74,192 214,299 214,299l18 -15c0,0 -18,-31 -34,-67 -16,-36 -28,-95 -28,-95 0,0 57,26 76,-33 30,-92 -58,-117 -58,-117 0,0 52,-105 137,-53 85,52 132,174 132,174 0,0 -9,-118 -38,-254 -29,-136 -61,-226 -61,-226 0,0 -131,-114 -262,67 -85,117 -102,304 -96,320z" style=" fill: rgb(162, 79, 63); fill-rule: nonzero;  stroke: rgb(162, 79, 63); stroke-width: 4.97638; "/>
  <path d="M3770 1822c0,0 -8,7 -15,26 -7,19 -25,17 0,-29 25,-46 73,-113 152,-64 79,49 136,130 162,186 26,57 26,79 26,99 0,19 -31,-42 -31,-42 0,0 9,43 16,113 7,70 5,106 5,106 0,0 44,30 0,16 -44,-14 -74,-20 -109,-15 -35,5 -69,25 -60,9 10,-16 16,-16 16,-16 0,0 -84,-91 -117,-187 -33,-96 -48,-174 -46,-201zm21 -20c36,242 106,303 106,303 0,0 -17,-86 20,-133 37,-46 78,-5 78,-5 0,0 -13,54 4,91 18,37 46,-19 46,-19 0,0 -2,-16 -9,-53 -7,-37 -21,-72 -21,-72 0,0 -20,-45 -99,-112 -79,-67 -127,-10 -125,0z" style=" fill: rgb(162, 79, 63); fill-rule: nonzero;  stroke: rgb(162, 79, 63); stroke-width: 4.97638; "/>
  <path d="M3374 2573c-23,8 -33,-47 3,-68 36,-22 114,-11 281,2 167,13 208,-32 259,-74 51,-41 75,-55 97,-41 22,14 22,19 -8,22 -30,3 -48,6 -77,74 -29,68 -136,316 -321,317 -185,1 -204,-270 -204,-270 0,0 -22,4 -27,16 -5,12 9,17 -3,22zm67 -8c0,0 33,189 147,200 114,11 176,-86 176,-86 0,0 -108,-143 -323,-114z" style=" fill: rgb(162, 79, 63); fill-rule: nonzero; "/>
  <path d="M3728 2244c123,-49 178,-16 188,12 10,28 -19,91 -125,124 -115,36 -177,-14 -167,-52 10,-38 63,-67 105,-84z" style=" fill: rgb(162, 79, 63); fill-rule: nonzero;  stroke: rgb(162, 79, 63); stroke-width: 4.97638; "/>
  <path d="M2893 4839c0,0 12,27 78,42 29,7 48,10 65,9 38,-1 36,-7 36,-7 0,0 7,-7 -42,-19 -26,-6 -45,-17 -68,-29 -37,-19 -48,-26 -48,-26l-22 29z" style=" fill: rgb(33, 33, 33); fill-rule: nonzero; "/>
  <path d="M4298 4564c0,0 -3,53 -35,99 -19,28 -77,50 -106,55 -19,4 -25,-4 -25,-4 0,0 -4,-5 15,-15 36,-20 50,-32 66,-52 23,-29 28,-47 28,-47l57 -37z" style=" fill: rgb(33, 33, 33); fill-rule: nonzero; "/>
  <path d="M3796 4244c-2,13 -17,-80 21,-191 38,-111 63,-147 63,-147l37 23c0,0 -101,159 -121,315z" style=" fill: rgb(33, 33, 33); fill-rule: nonzero; "/>
  <path d="M3609 4451c0,0 2,-127 10,-189 8,-62 17,-77 17,-77 0,0 17,30 20,109 4,79 3,161 3,161l-50 -4z" style=" fill: rgb(33, 33, 33); fill-rule: nonzero; "/>
  <path d="M2584 4336c8,-4 11,27 74,49 63,22 92,20 92,20l8 40c0,0 -45,3 -93,-20 -57,-27 -89,-85 -80,-90z" style=" fill: rgb(33, 33, 33); fill-rule: nonzero; "/>
  <path d="M3363 4255c0,0 15,-50 26,-85 13,-42 14,-97 14,-97 0,0 25,61 22,114 -4,53 -12,76 -12,76l-50 -8z" style=" fill: rgb(33, 33, 33); fill-rule: nonzero; "/>
  <path d="M2888 3526c0,0 -28,-6 -58,-18 -29,-13 -48,-16 -31,10 17,27 50,48 63,53 13,4 46,13 46,13l-20 -58z" style=" fill: rgb(33, 33, 33); fill-rule: nonzero; "/>
  <path d="M2958 3905c0,0 5,0 25,4 20,3 42,-3 24,-23 -18,-20 -25,-26 -40,-31 -15,-5 -27,13 -27,13l18 37z" style=" fill: rgb(33, 33, 33); fill-rule: nonzero; "/>
  <path d="M2842 2596l-273 194c0,0 -79,137 -132,213 -53,76 -172,209 -177,268 -5,59 -8,120 -20,141 -12,21 -29,31 -35,28 -7,-3 -16,-26 -17,-55 -1,-29 11,-124 24,-149 12,-25 87,-186 105,-195 18,-9 98,-99 109,-126 12,-27 107,-96 107,-96 0,0 296,-208 291,-219 -5,-11 -310,175 -317,180 -15,10 -98,71 -130,103 -32,32 -103,99 -136,122 -33,23 -143,170 -170,199 -27,29 -79,125 -100,150 -21,25 -55,66 -59,51 -4,-14 -19,-15 -19,-33 0,-18 39,-101 51,-119 11,-18 86,-136 148,-196 62,-60 113,-119 140,-143 26,-24 38,-43 206,-158 169,-116 432,-175 404,-159z" style=" fill: rgb(33, 33, 33);  stroke: rgb(33, 33, 33); stroke-width: 6.94488; "/>
  <path d="M4309 2189c7,10 174,71 198,93 24,22 68,41 68,41 0,0 45,-12 39,-25 -6,-13 -33,-42 -40,-60 -7,-18 -90,-53 -119,-60 -29,-7 -264,-2 -270,0 -7,2 147,-58 197,-67 50,-9 186,25 202,19 15,-6 181,56 181,56l33 -26c0,0 -13,-52 -33,-61 -20,-9 -77,-23 -115,-27 -38,-4 -107,-8 -148,-5 -40,3 -162,20 -190,25 -27,5 -51,61 -51,61l49 36z" style=" fill: rgb(33, 33, 33);  stroke: rgb(33, 33, 33); stroke-width: 6.94488; "/>
  <path d="M3893 3036c0,0 -31,-18 -70,-44 -38,-26 -67,-44 -67,-44 0,0 46,8 99,24 52,16 62,22 62,22l-24 42z" style=" fill: rgb(33, 33, 33); fill-rule: nonzero; "/>
  <polygon points="3486,3559 3578,3563 3572,3573 3480,3568 " style=" fill: rgb(123, 170, 189); "/>
  <polygon points="3640,3567 3644,3558 3735,3556 3730,3565 " style=" fill: rgb(123, 170, 189); "/>
  <polygon points="3894,3518 3900,3529 3983,3503 3977,3493 " style=" fill: rgb(123, 170, 189); "/>
  <path d="M3901 3385l4 5c0,0 38,-1 93,5 55,6 91,10 91,10l-8 -12c0,0 -118,-18 -181,-9z" style=" fill: rgb(123, 170, 189); "/>
  <path d="M3791 3257l3 3c0,0 61,-2 119,0 58,2 85,2 85,2l-6 -7c0,0 -130,-5 -200,2z" style=" fill: rgb(123, 170, 189); "/>
  <path d="M3399 3209c0,0 55,33 101,71 46,38 93,75 93,75l-5 5c0,0 -137,-121 -188,-152z" style=" fill: rgb(123, 170, 189); "/>
  <path d="M2338 1236c0,0 325,-216 931,-221 607,-5 721,485 803,751 82,266 77,440 77,440 0,0 298,204 -97,515 -395,311 -1079,423 -1442,254 -363,-169 -492,-388 -559,-659 -67,-271 -12,-480 -12,-480" style=" fill: none; fill-rule: nonzero;  stroke: rgb(33, 33, 33); stroke-width: 49.7638; "/>
  <path d="M2110 1998c0,0 -17,-42 -94,-271 -77,-229 -109,-365 -59,-426 50,-61 222,-63 374,-41 152,22 226,59 226,59 0,0 -17,-31 -78,-57 -61,-26 -120,-47 -220,-57 -100,-10 -266,-19 -345,68 -79,87 -5,285 43,410 48,125 106,254 154,314z" style=" fill: rgb(33, 33, 33); fill-rule: nonzero;  stroke: rgb(33, 33, 33); stroke-width: 9.95276; "/>
 </g>
</svg>
