<?xml version="1.0" encoding="UTF-8"?>
<!DOCTYPE svg PUBLIC "-//W3C//DTD SVG 1.1//EN" "http://www.w3.org/Graphics/SVG/1.1/DTD/svg11.dtd">
<svg xmlns="http://www.w3.org/2000/svg" xml:space="preserve" width="196px" height="71px" style="shape-rendering:geometricPrecision; text-rendering:geometricPrecision; image-rendering:optimizeQuality; fill-rule:evenodd; clip-rule:evenodd"
viewBox="0 0 5500 2200"
 xmlns:xlink="http://www.w3.org/1999/xlink">
 <defs>
  <linearGradient id="id0" gradientUnits="userSpaceOnUse" x1="2825.96" y1="893.315" x2="2822.73" y2="1112.13">
   <stop offset="0" style="stop-color:#AC6C00"/>
   <stop offset="1" style="stop-color:#6B2700"/>
  </linearGradient>
 </defs>
 <g id="Layer_x0020_1">
  <metadata id="CorelCorpID_0Corel-Layer"/>
  <path style="fill:url(#id0)" d="M1917 1518l38 0c0,0 0,-214 0,-269 0,-56 14,-99 83,-99 69,0 17,0 349,0 332,0 361,252 361,252 0,0 118,-291 479,-291 361,0 475,296 475,296 80,-157 216,-294 455,-294 241,0 347,118 347,118 0,0 0,11 0,-11 0,-21 21,-68 81,-68 60,0 137,0 212,0 75,0 80,45 80,63 0,18 0,45 0,45l20 32 76 -105c0,0 -47,-89 -119,-256 -8,-18 -151,-18 -160,-38 -87,-203 -58,-61 -233,-65 -175,-3 -129,-65 -332,-107 -203,-42 -205,9 -215,45 -10,36 -75,158 -75,158l-33 3c0,0 -10,-82 -84,-91 -75,-9 -321,14 -321,14 0,0 -171,-185 -215,-200 -43,-16 -416,-88 -638,-126 -222,-38 -286,-23 -314,19 -28,42 -221,112 -221,112 0,0 -21,-42 -80,-45 -59,-3 -274,48 -293,67 -19,19 -278,207 -299,225 -21,17 -132,24 -184,16 -52,-9 -163,-89 -187,-65 -24,24 -36,174 -40,183 -12,30 -238,-23 -252,83 0,3 -1,6 -1,8 327,31 392,297 392,297 0,0 0,-128 0,-184 0,-56 10,-95 78,-95 68,0 68,0 167,0 99,0 114,18 132,52 18,34 116,213 116,213 0,0 0,-154 0,-190 0,-36 10,-72 82,-72 73,0 103,0 172,0 69,0 101,15 101,78 0,63 0,291 0,291z"/>
  <path style="fill:#C98F00" d="M677 1121c2,-18 11,-58 41,-66 38,-10 95,-21 99,-30 1,-2 6,-13 13,-29 27,-57 163,38 182,19 24,-24 74,-109 126,-100 52,9 94,12 115,-5 21,-17 327,-235 346,-254 19,-19 280,-42 339,-38 59,3 80,45 80,45 0,0 228,-308 256,-350 28,-42 92,-57 314,-19 222,38 256,319 299,334 40,14 444,86 489,123 2,6 3,9 3,9 0,0 4,-1 11,-3 52,60 171,84 236,92 75,9 157,53 157,53l33 -3c0,0 94,-73 105,-109 10,-36 12,-87 215,-45 203,42 17,174 193,177 165,3 265,-40 482,-81 5,11 10,22 15,35 8,20 17,39 25,57 -15,30 -37,69 -66,100 -56,57 -82,69 -186,68 -104,-2 -104,16 -153,-2 -49,-17 -80,-43 -102,-49 -23,-5 -120,2 -120,2 0,0 -19,23 -38,38 -7,6 -18,15 -35,24 -58,1 -126,11 -172,29 -35,0 -113,-12 -135,-47 0,0 -16,35 -75,75 -59,40 -156,21 -276,-87 -120,-108 -161,-194 -161,-194 0,0 -89,92 -375,210 -286,118 -537,36 -599,-1 -62,-37 -77,-12 -102,-25 -25,-13 -88,-80 -88,-80 0,0 -76,55 -124,15 -49,-40 -82,-105 -82,-105 0,0 -20,59 -72,86 -52,27 -140,45 -140,45 0,0 -172,151 -265,148 -93,-3 -128,-89 -128,-89 0,0 -33,30 -110,16 -77,-14 -108,-76 -108,-76 0,0 -84,63 -185,82 -101,19 -135,-51 -135,-51 0,0 -10,12 -43,26 -22,9 -70,23 -100,31z"/>
  <path style="fill:#F0B300" d="M830 997c5,-10 10,-22 17,-35 93,2 156,-33 172,-49 24,-24 170,-69 222,-60 52,9 6,40 27,22 21,-17 352,-177 371,-196 19,-19 241,-65 300,-62 59,3 71,-21 71,-21 0,0 102,-32 130,-74 28,-42 92,-57 314,-19 222,38 595,110 638,126 29,10 46,28 255,20 15,47 26,85 31,102 0,0 -326,219 -650,271 -325,52 -494,-56 -544,-76 -50,-19 -66,-10 -130,-30 -64,-19 -113,-75 -113,-75 0,0 -30,57 -83,95 -54,38 -148,41 -159,62 -10,21 -97,106 -207,111 -109,5 -130,-71 -130,-71 0,0 -28,-3 -101,-21 -73,-17 -83,-73 -83,-73 0,0 -42,35 -90,63 -49,28 -114,60 -169,55 -34,-3 -67,-39 -87,-67zm2561 -239c9,-2 23,-5 40,-9 93,50 223,21 276,27 75,9 84,91 84,91l33 -3c0,0 12,-69 23,-106 10,-36 12,-87 215,-45 203,42 299,64 474,68 137,3 156,115 239,-5 12,17 23,39 36,66 -25,39 -50,75 -66,93 -43,50 -119,97 -220,90 -102,-7 -158,-24 -277,-32 -119,-8 -94,84 -247,82 -154,-3 -220,-64 -220,-64 0,0 -4,34 -21,57 -16,23 -55,46 -186,-25 -131,-71 -183,-284 -183,-284z"/>
  <path style="fill:black" d="M3169 1188c-260,32 -411,225 -379,472 29,224 222,389 492,360 241,-26 411,-210 383,-475 -24,-228 -232,-389 -496,-357zm-2644 0c-578,70 -474,896 113,832 237,-26 415,-212 383,-473 -32,-262 -264,-387 -496,-359zm607 811c34,4 206,3 253,2l-11 -376c15,9 17,21 31,45 28,48 182,309 191,332 73,1 204,2 274,0l0 -792 -253 -1 10 398c-11,-7 -12,-8 -19,-22 -6,-10 -9,-17 -14,-25 -29,-50 -185,-325 -196,-350 -48,-1 -232,-6 -267,2l0 789zm889 0c34,4 210,3 258,2l0 -282c20,3 72,120 82,137 13,24 25,46 39,71 11,20 27,55 40,72 34,3 271,3 305,0 -60,-108 -139,-211 -199,-318 13,-15 55,-26 87,-69 86,-116 55,-276 -40,-343 -71,-51 -151,-62 -255,-62 -61,0 -274,-8 -318,2l0 789zm2539 0c31,4 224,3 260,1l0 -311c19,11 45,58 57,77 23,35 150,232 163,235l320 -1c-15,-25 -130,-180 -156,-216 -27,-37 -50,-70 -78,-106 -19,-25 -67,-86 -77,-110 27,-28 114,-139 146,-177 26,-32 134,-158 148,-183l-304 0c-14,3 -42,49 -56,68 -30,40 -147,209 -165,220l0 -286c-20,-5 -237,-5 -259,0l0 789zm-75 -94c-9,-16 -27,-33 -40,-49l-80 -96c-12,-14 -30,-34 -38,-48 -17,7 -34,35 -76,51 -94,35 -216,-22 -218,-156 -2,-131 103,-196 212,-167 49,13 62,43 84,50 15,-26 143,-170 157,-193 -5,-8 0,-2 -8,-10 -49,-46 -139,-80 -205,-93 -95,-18 -198,-7 -278,27 -335,145 -332,623 4,768 149,64 338,40 465,-62 13,-10 16,-10 22,-22zm-1296 -470c-50,14 -74,34 -95,69 -67,114 10,308 171,268 194,-49 134,-396 -76,-337zm-2644 0c-203,57 -127,388 76,337 80,-20 132,-103 115,-207 -14,-83 -90,-158 -192,-129zm1732 107c62,3 142,5 145,-62 3,-76 -81,-67 -145,-65l-1 127z"/>
  <path style="fill:#FFE000" d="M847 962c30,-62 74,-149 90,-164 24,-24 177,16 229,24 52,9 54,10 75,-7 21,-17 327,-235 346,-254 19,-19 280,-42 339,-38 59,3 80,45 80,45 0,0 228,-308 256,-350 28,-42 92,-57 314,-19 222,38 595,110 638,126 29,10 92,198 132,324 0,0 -131,137 -475,250 -344,113 -607,-71 -640,-70 -33,1 -37,27 -95,20 -58,-7 -103,-43 -134,-60 -30,-17 -33,-101 -33,-101 0,0 -27,50 -69,107 -43,56 -132,109 -179,115 -47,6 -90,74 -108,93 -18,19 -90,34 -111,36 -21,3 -26,-8 -57,-42 -31,-34 -69,-45 -115,-47 -47,-2 -57,-9 -85,-20 -28,-11 -24,-70 -24,-70 0,0 -57,59 -88,79 -30,20 -146,68 -199,67 -53,-1 -85,-44 -85,-44zm2584 -213c76,-17 215,-46 268,-40 75,9 84,91 84,91l33 -3c0,0 12,-69 23,-106 10,-36 12,-87 215,-45 203,42 299,64 474,68 136,3 189,-23 247,60 -16,40 -36,69 -48,83 -23,26 -83,106 -186,113 -102,7 -283,-31 -349,-26 -66,5 -167,83 -201,83 -35,0 -87,-14 -135,-28 -49,-14 -63,-77 -63,-77 0,0 -43,139 -189,49 -146,-90 -172,-221 -172,-221z"/>
  <path style="fill:white;stroke:white;stroke-width:6.94488" d="M926 979c0,0 38,-106 43,-124 6,-18 56,-1 74,6 18,7 69,27 69,27 0,0 -48,25 -53,28 -5,3 -33,-2 -40,7 -7,8 -15,29 -26,34 -11,6 -68,22 -68,22z"/>
  <path style="fill:white;stroke:white;stroke-width:6.94488" d="M1305 894c0,0 285,-238 316,-258 31,-20 280,-43 293,-45 12,-3 -180,255 -180,255 0,0 -24,-56 -39,-70 -15,-14 -88,162 -88,162l-89 36c0,0 -33,-80 -47,-100 -14,-20 -62,28 -62,28 0,0 -92,10 -105,-8z"/>
  <path style="fill:white;stroke:white;stroke-width:6.94488" d="M2061 668c0,0 200,-295 231,-337 31,-42 73,-71 196,-54 123,17 493,89 531,95 38,7 57,19 59,50 2,31 10,50 -35,87 -45,36 -188,144 -212,156 -24,12 -68,33 -85,28 -17,-5 -64,-104 -78,-122 -14,-17 -160,33 -207,50 -47,17 -108,69 -127,89 -19,19 -21,23 -36,5 -16,-17 -24,-45 -47,-38 -23,7 -68,49 -87,57 -19,9 -50,-9 -76,-24 -26,-16 -31,-26 -28,-43z"/>
  <path style="fill:white;stroke:white;stroke-width:6.94488" d="M3546 785c4,0 109,-17 138,-18 30,-1 58,70 60,92 2,22 -14,30 -24,20 -10,-10 -30,-16 -48,-16 -18,-1 -35,2 -35,-7 0,-9 7,-50 -15,-56 -22,-6 -76,-14 -76,-14z"/>
  <path style="fill:white;stroke:white;stroke-width:6.94488" d="M3894 815c0,0 -12,-55 -6,-89 6,-34 29,-54 120,-30 91,23 219,46 279,53 60,7 84,7 98,27 14,20 20,33 20,33 0,0 -64,1 -91,3 -27,2 -67,63 -67,63 0,0 -91,-22 -115,-20 -23,2 -102,99 -102,99 0,0 -37,-91 -55,-112 -17,-21 -82,-27 -82,-27z"/>
 </g>
</svg>
